<?xml version="1.0" encoding="utf-8" standalone="no"?>
<!DOCTYPE svg PUBLIC "-//W3C//DTD SVG 1.1//EN"
  "http://www.w3.org/Graphics/SVG/1.1/DTD/svg11.dtd">
<!-- Created with matplotlib (https://matplotlib.org/) -->
<svg height="1872pt" version="1.1" viewBox="0 0 360 1872" width="360pt" xmlns="http://www.w3.org/2000/svg" xmlns:xlink="http://www.w3.org/1999/xlink">
 <defs>
  <style type="text/css">
*{stroke-linecap:butt;stroke-linejoin:round;}
  </style>
 </defs>
 <g id="figure_1">
  <g id="patch_1">
   <path d="M 0 1872 
L 360 1872 
L 360 0 
L 0 0 
z
" style="fill:#ffffff;"/>
  </g>
  <g id="axes_1">
   <g id="patch_2">
    <path d="M 45 1666.08 
L 324 1666.08 
L 324 224.64 
L 45 224.64 
z
" style="fill:#ffffff;"/>
   </g>
   <g id="patch_3">
    <path clip-path="url(#p8914077bb1)" d="M 45 1600.56 
L 45.840361 1600.56 
L 45.840361 1580.322162 
L 45 1580.322162 
z
" style="fill:#1f77b4;"/>
   </g>
   <g id="patch_4">
    <path clip-path="url(#p8914077bb1)" d="M 45 1575.262703 
L 48.361446 1575.262703 
L 48.361446 1555.024865 
L 45 1555.024865 
z
" style="fill:#1f77b4;"/>
   </g>
   <g id="patch_5">
    <path clip-path="url(#p8914077bb1)" d="M 45 1549.965405 
L 45.840361 1549.965405 
L 45.840361 1529.727568 
L 45 1529.727568 
z
" style="fill:#1f77b4;"/>
   </g>
   <g id="patch_6">
    <path clip-path="url(#p8914077bb1)" d="M 45 1524.668108 
L 45.840361 1524.668108 
L 45.840361 1504.43027 
L 45 1504.43027 
z
" style="fill:#1f77b4;"/>
   </g>
   <g id="patch_7">
    <path clip-path="url(#p8914077bb1)" d="M 45 1499.370811 
L 45.840361 1499.370811 
L 45.840361 1479.132973 
L 45 1479.132973 
z
" style="fill:#1f77b4;"/>
   </g>
   <g id="patch_8">
    <path clip-path="url(#p8914077bb1)" d="M 45 1474.073514 
L 47.521084 1474.073514 
L 47.521084 1453.835676 
L 45 1453.835676 
z
" style="fill:#1f77b4;"/>
   </g>
   <g id="patch_9">
    <path clip-path="url(#p8914077bb1)" d="M 45 1448.776216 
L 45.840361 1448.776216 
L 45.840361 1428.538378 
L 45 1428.538378 
z
" style="fill:#1f77b4;"/>
   </g>
   <g id="patch_10">
    <path clip-path="url(#p8914077bb1)" d="M 45 1423.478919 
L 48.361446 1423.478919 
L 48.361446 1403.241081 
L 45 1403.241081 
z
" style="fill:#1f77b4;"/>
   </g>
   <g id="patch_11">
    <path clip-path="url(#p8914077bb1)" d="M 45 1398.181622 
L 53.403614 1398.181622 
L 53.403614 1377.943784 
L 45 1377.943784 
z
" style="fill:#1f77b4;"/>
   </g>
   <g id="patch_12">
    <path clip-path="url(#p8914077bb1)" d="M 45 1372.884324 
L 45.840361 1372.884324 
L 45.840361 1352.646486 
L 45 1352.646486 
z
" style="fill:#1f77b4;"/>
   </g>
   <g id="patch_13">
    <path clip-path="url(#p8914077bb1)" d="M 45 1347.587027 
L 50.88253 1347.587027 
L 50.88253 1327.349189 
L 45 1327.349189 
z
" style="fill:#1f77b4;"/>
   </g>
   <g id="patch_14">
    <path clip-path="url(#p8914077bb1)" d="M 45 1322.28973 
L 49.201807 1322.28973 
L 49.201807 1302.051892 
L 45 1302.051892 
z
" style="fill:#1f77b4;"/>
   </g>
   <g id="patch_15">
    <path clip-path="url(#p8914077bb1)" d="M 45 1296.992432 
L 65.168675 1296.992432 
L 65.168675 1276.754595 
L 45 1276.754595 
z
" style="fill:#1f77b4;"/>
   </g>
   <g id="patch_16">
    <path clip-path="url(#p8914077bb1)" d="M 45 1271.695135 
L 52.563253 1271.695135 
L 52.563253 1251.457297 
L 45 1251.457297 
z
" style="fill:#1f77b4;"/>
   </g>
   <g id="patch_17">
    <path clip-path="url(#p8914077bb1)" d="M 45 1246.397838 
L 46.680723 1246.397838 
L 46.680723 1226.16 
L 45 1226.16 
z
" style="fill:#1f77b4;"/>
   </g>
   <g id="patch_18">
    <path clip-path="url(#p8914077bb1)" d="M 45 1221.100541 
L 55.924699 1221.100541 
L 55.924699 1200.862703 
L 45 1200.862703 
z
" style="fill:#1f77b4;"/>
   </g>
   <g id="patch_19">
    <path clip-path="url(#p8914077bb1)" d="M 45 1195.803243 
L 62.64759 1195.803243 
L 62.64759 1175.565405 
L 45 1175.565405 
z
" style="fill:#1f77b4;"/>
   </g>
   <g id="patch_20">
    <path clip-path="url(#p8914077bb1)" d="M 45 1170.505946 
L 50.88253 1170.505946 
L 50.88253 1150.268108 
L 45 1150.268108 
z
" style="fill:#1f77b4;"/>
   </g>
   <g id="patch_21">
    <path clip-path="url(#p8914077bb1)" d="M 45 1145.208649 
L 46.680723 1145.208649 
L 46.680723 1124.970811 
L 45 1124.970811 
z
" style="fill:#1f77b4;"/>
   </g>
   <g id="patch_22">
    <path clip-path="url(#p8914077bb1)" d="M 45 1119.911351 
L 45.840361 1119.911351 
L 45.840361 1099.673514 
L 45 1099.673514 
z
" style="fill:#1f77b4;"/>
   </g>
   <g id="patch_23">
    <path clip-path="url(#p8914077bb1)" d="M 45 1094.614054 
L 93.740964 1094.614054 
L 93.740964 1074.376216 
L 45 1074.376216 
z
" style="fill:#1f77b4;"/>
   </g>
   <g id="patch_24">
    <path clip-path="url(#p8914077bb1)" d="M 45 1069.316757 
L 45.840361 1069.316757 
L 45.840361 1049.078919 
L 45 1049.078919 
z
" style="fill:#1f77b4;"/>
   </g>
   <g id="patch_25">
    <path clip-path="url(#p8914077bb1)" d="M 45 1044.019459 
L 45.840361 1044.019459 
L 45.840361 1023.781622 
L 45 1023.781622 
z
" style="fill:#1f77b4;"/>
   </g>
   <g id="patch_26">
    <path clip-path="url(#p8914077bb1)" d="M 45 1018.722162 
L 79.454819 1018.722162 
L 79.454819 998.484324 
L 45 998.484324 
z
" style="fill:#1f77b4;"/>
   </g>
   <g id="patch_27">
    <path clip-path="url(#p8914077bb1)" d="M 45 993.424865 
L 50.042169 993.424865 
L 50.042169 973.187027 
L 45 973.187027 
z
" style="fill:#1f77b4;"/>
   </g>
   <g id="patch_28">
    <path clip-path="url(#p8914077bb1)" d="M 45 968.127568 
L 50.88253 968.127568 
L 50.88253 947.88973 
L 45 947.88973 
z
" style="fill:#1f77b4;"/>
   </g>
   <g id="patch_29">
    <path clip-path="url(#p8914077bb1)" d="M 45 942.83027 
L 55.924699 942.83027 
L 55.924699 922.592432 
L 45 922.592432 
z
" style="fill:#1f77b4;"/>
   </g>
   <g id="patch_30">
    <path clip-path="url(#p8914077bb1)" d="M 45 917.532973 
L 45.840361 917.532973 
L 45.840361 897.295135 
L 45 897.295135 
z
" style="fill:#1f77b4;"/>
   </g>
   <g id="patch_31">
    <path clip-path="url(#p8914077bb1)" d="M 45 892.235676 
L 52.563253 892.235676 
L 52.563253 871.997838 
L 45 871.997838 
z
" style="fill:#1f77b4;"/>
   </g>
   <g id="patch_32">
    <path clip-path="url(#p8914077bb1)" d="M 45 866.938378 
L 45.840361 866.938378 
L 45.840361 846.700541 
L 45 846.700541 
z
" style="fill:#1f77b4;"/>
   </g>
   <g id="patch_33">
    <path clip-path="url(#p8914077bb1)" d="M 45 841.641081 
L 47.521084 841.641081 
L 47.521084 821.403243 
L 45 821.403243 
z
" style="fill:#1f77b4;"/>
   </g>
   <g id="patch_34">
    <path clip-path="url(#p8914077bb1)" d="M 45 816.343784 
L 45.840361 816.343784 
L 45.840361 796.105946 
L 45 796.105946 
z
" style="fill:#1f77b4;"/>
   </g>
   <g id="patch_35">
    <path clip-path="url(#p8914077bb1)" d="M 45 791.046486 
L 45.840361 791.046486 
L 45.840361 770.808649 
L 45 770.808649 
z
" style="fill:#1f77b4;"/>
   </g>
   <g id="patch_36">
    <path clip-path="url(#p8914077bb1)" d="M 45 765.749189 
L 45.840361 765.749189 
L 45.840361 745.511351 
L 45 745.511351 
z
" style="fill:#1f77b4;"/>
   </g>
   <g id="patch_37">
    <path clip-path="url(#p8914077bb1)" d="M 45 740.451892 
L 45.840361 740.451892 
L 45.840361 720.214054 
L 45 720.214054 
z
" style="fill:#1f77b4;"/>
   </g>
   <g id="patch_38">
    <path clip-path="url(#p8914077bb1)" d="M 45 715.154595 
L 55.924699 715.154595 
L 55.924699 694.916757 
L 45 694.916757 
z
" style="fill:#1f77b4;"/>
   </g>
   <g id="patch_39">
    <path clip-path="url(#p8914077bb1)" d="M 45 689.857297 
L 46.680723 689.857297 
L 46.680723 669.619459 
L 45 669.619459 
z
" style="fill:#1f77b4;"/>
   </g>
   <g id="patch_40">
    <path clip-path="url(#p8914077bb1)" d="M 45 664.56 
L 45.840361 664.56 
L 45.840361 644.322162 
L 45 644.322162 
z
" style="fill:#1f77b4;"/>
   </g>
   <g id="patch_41">
    <path clip-path="url(#p8914077bb1)" d="M 45 639.262703 
L 59.286145 639.262703 
L 59.286145 619.024865 
L 45 619.024865 
z
" style="fill:#1f77b4;"/>
   </g>
   <g id="patch_42">
    <path clip-path="url(#p8914077bb1)" d="M 45 613.965405 
L 49.201807 613.965405 
L 49.201807 593.727568 
L 45 593.727568 
z
" style="fill:#1f77b4;"/>
   </g>
   <g id="patch_43">
    <path clip-path="url(#p8914077bb1)" d="M 45 588.668108 
L 45.840361 588.668108 
L 45.840361 568.43027 
L 45 568.43027 
z
" style="fill:#1f77b4;"/>
   </g>
   <g id="patch_44">
    <path clip-path="url(#p8914077bb1)" d="M 45 563.370811 
L 51.722892 563.370811 
L 51.722892 543.132973 
L 45 543.132973 
z
" style="fill:#1f77b4;"/>
   </g>
   <g id="patch_45">
    <path clip-path="url(#p8914077bb1)" d="M 45 538.073514 
L 45.840361 538.073514 
L 45.840361 517.835676 
L 45 517.835676 
z
" style="fill:#1f77b4;"/>
   </g>
   <g id="patch_46">
    <path clip-path="url(#p8914077bb1)" d="M 45 512.776216 
L 47.521084 512.776216 
L 47.521084 492.538378 
L 45 492.538378 
z
" style="fill:#1f77b4;"/>
   </g>
   <g id="patch_47">
    <path clip-path="url(#p8914077bb1)" d="M 45 487.478919 
L 45.840361 487.478919 
L 45.840361 467.241081 
L 45 467.241081 
z
" style="fill:#1f77b4;"/>
   </g>
   <g id="patch_48">
    <path clip-path="url(#p8914077bb1)" d="M 45 462.181622 
L 47.521084 462.181622 
L 47.521084 441.943784 
L 45 441.943784 
z
" style="fill:#1f77b4;"/>
   </g>
   <g id="patch_49">
    <path clip-path="url(#p8914077bb1)" d="M 45 436.884324 
L 46.680723 436.884324 
L 46.680723 416.646486 
L 45 416.646486 
z
" style="fill:#1f77b4;"/>
   </g>
   <g id="patch_50">
    <path clip-path="url(#p8914077bb1)" d="M 45 411.587027 
L 46.680723 411.587027 
L 46.680723 391.349189 
L 45 391.349189 
z
" style="fill:#1f77b4;"/>
   </g>
   <g id="patch_51">
    <path clip-path="url(#p8914077bb1)" d="M 45 386.28973 
L 47.521084 386.28973 
L 47.521084 366.051892 
L 45 366.051892 
z
" style="fill:#1f77b4;"/>
   </g>
   <g id="patch_52">
    <path clip-path="url(#p8914077bb1)" d="M 45 360.992432 
L 48.361446 360.992432 
L 48.361446 340.754595 
L 45 340.754595 
z
" style="fill:#1f77b4;"/>
   </g>
   <g id="patch_53">
    <path clip-path="url(#p8914077bb1)" d="M 45 335.695135 
L 45.840361 335.695135 
L 45.840361 315.457297 
L 45 315.457297 
z
" style="fill:#1f77b4;"/>
   </g>
   <g id="patch_54">
    <path clip-path="url(#p8914077bb1)" d="M 45 310.397838 
L 46.680723 310.397838 
L 46.680723 290.16 
L 45 290.16 
z
" style="fill:#1f77b4;"/>
   </g>
   <g id="matplotlib.axis_1">
    <g id="xtick_1">
     <g id="line2d_1">
      <defs>
       <path d="M 0 0 
L 0 3.5 
" id="mc330c247d6" style="stroke:#000000;stroke-width:0.8;"/>
      </defs>
      <g>
       <use style="stroke:#000000;stroke-width:0.8;" x="45" xlink:href="#mc330c247d6" y="1666.08"/>
      </g>
     </g>
     <g id="text_1">
      <!-- 0% -->
      <defs>
       <path d="M 31.78125 66.40625 
Q 24.171875 66.40625 20.328125 58.90625 
Q 16.5 51.421875 16.5 36.375 
Q 16.5 21.390625 20.328125 13.890625 
Q 24.171875 6.390625 31.78125 6.390625 
Q 39.453125 6.390625 43.28125 13.890625 
Q 47.125 21.390625 47.125 36.375 
Q 47.125 51.421875 43.28125 58.90625 
Q 39.453125 66.40625 31.78125 66.40625 
z
M 31.78125 74.21875 
Q 44.046875 74.21875 50.515625 64.515625 
Q 56.984375 54.828125 56.984375 36.375 
Q 56.984375 17.96875 50.515625 8.265625 
Q 44.046875 -1.421875 31.78125 -1.421875 
Q 19.53125 -1.421875 13.0625 8.265625 
Q 6.59375 17.96875 6.59375 36.375 
Q 6.59375 54.828125 13.0625 64.515625 
Q 19.53125 74.21875 31.78125 74.21875 
z
" id="DejaVuSans-48"/>
       <path d="M 72.703125 32.078125 
Q 68.453125 32.078125 66.03125 28.46875 
Q 63.625 24.859375 63.625 18.40625 
Q 63.625 12.0625 66.03125 8.421875 
Q 68.453125 4.78125 72.703125 4.78125 
Q 76.859375 4.78125 79.265625 8.421875 
Q 81.6875 12.0625 81.6875 18.40625 
Q 81.6875 24.8125 79.265625 28.4375 
Q 76.859375 32.078125 72.703125 32.078125 
z
M 72.703125 38.28125 
Q 80.421875 38.28125 84.953125 32.90625 
Q 89.5 27.546875 89.5 18.40625 
Q 89.5 9.28125 84.9375 3.921875 
Q 80.375 -1.421875 72.703125 -1.421875 
Q 64.890625 -1.421875 60.34375 3.921875 
Q 55.8125 9.28125 55.8125 18.40625 
Q 55.8125 27.59375 60.375 32.9375 
Q 64.9375 38.28125 72.703125 38.28125 
z
M 22.3125 68.015625 
Q 18.109375 68.015625 15.6875 64.375 
Q 13.28125 60.75 13.28125 54.390625 
Q 13.28125 47.953125 15.671875 44.328125 
Q 18.0625 40.71875 22.3125 40.71875 
Q 26.5625 40.71875 28.96875 44.328125 
Q 31.390625 47.953125 31.390625 54.390625 
Q 31.390625 60.6875 28.953125 64.34375 
Q 26.515625 68.015625 22.3125 68.015625 
z
M 66.40625 74.21875 
L 74.21875 74.21875 
L 28.609375 -1.421875 
L 20.796875 -1.421875 
z
M 22.3125 74.21875 
Q 30.03125 74.21875 34.609375 68.875 
Q 39.203125 63.53125 39.203125 54.390625 
Q 39.203125 45.171875 34.640625 39.84375 
Q 30.078125 34.515625 22.3125 34.515625 
Q 14.546875 34.515625 10.03125 39.859375 
Q 5.515625 45.21875 5.515625 54.390625 
Q 5.515625 63.484375 10.046875 68.84375 
Q 14.59375 74.21875 22.3125 74.21875 
z
" id="DejaVuSans-37"/>
      </defs>
      <g transform="translate(47.759375 1688.944062)rotate(-90)scale(0.1 -0.1)">
       <use xlink:href="#DejaVuSans-48"/>
       <use x="63.623047" xlink:href="#DejaVuSans-37"/>
      </g>
     </g>
    </g>
    <g id="xtick_2">
     <g id="line2d_2">
      <g>
       <use style="stroke:#000000;stroke-width:0.8;" x="100.8" xlink:href="#mc330c247d6" y="1666.08"/>
      </g>
     </g>
     <g id="text_2">
      <!-- 20% -->
      <defs>
       <path d="M 19.1875 8.296875 
L 53.609375 8.296875 
L 53.609375 0 
L 7.328125 0 
L 7.328125 8.296875 
Q 12.9375 14.109375 22.625 23.890625 
Q 32.328125 33.6875 34.8125 36.53125 
Q 39.546875 41.84375 41.421875 45.53125 
Q 43.3125 49.21875 43.3125 52.78125 
Q 43.3125 58.59375 39.234375 62.25 
Q 35.15625 65.921875 28.609375 65.921875 
Q 23.96875 65.921875 18.8125 64.3125 
Q 13.671875 62.703125 7.8125 59.421875 
L 7.8125 69.390625 
Q 13.765625 71.78125 18.9375 73 
Q 24.125 74.21875 28.421875 74.21875 
Q 39.75 74.21875 46.484375 68.546875 
Q 53.21875 62.890625 53.21875 53.421875 
Q 53.21875 48.921875 51.53125 44.890625 
Q 49.859375 40.875 45.40625 35.40625 
Q 44.1875 33.984375 37.640625 27.21875 
Q 31.109375 20.453125 19.1875 8.296875 
z
" id="DejaVuSans-50"/>
      </defs>
      <g transform="translate(103.559375 1695.306562)rotate(-90)scale(0.1 -0.1)">
       <use xlink:href="#DejaVuSans-50"/>
       <use x="63.623047" xlink:href="#DejaVuSans-48"/>
       <use x="127.246094" xlink:href="#DejaVuSans-37"/>
      </g>
     </g>
    </g>
    <g id="xtick_3">
     <g id="line2d_3">
      <g>
       <use style="stroke:#000000;stroke-width:0.8;" x="156.6" xlink:href="#mc330c247d6" y="1666.08"/>
      </g>
     </g>
     <g id="text_3">
      <!-- 40% -->
      <defs>
       <path d="M 37.796875 64.3125 
L 12.890625 25.390625 
L 37.796875 25.390625 
z
M 35.203125 72.90625 
L 47.609375 72.90625 
L 47.609375 25.390625 
L 58.015625 25.390625 
L 58.015625 17.1875 
L 47.609375 17.1875 
L 47.609375 0 
L 37.796875 0 
L 37.796875 17.1875 
L 4.890625 17.1875 
L 4.890625 26.703125 
z
" id="DejaVuSans-52"/>
      </defs>
      <g transform="translate(159.359375 1695.306562)rotate(-90)scale(0.1 -0.1)">
       <use xlink:href="#DejaVuSans-52"/>
       <use x="63.623047" xlink:href="#DejaVuSans-48"/>
       <use x="127.246094" xlink:href="#DejaVuSans-37"/>
      </g>
     </g>
    </g>
    <g id="xtick_4">
     <g id="line2d_4">
      <g>
       <use style="stroke:#000000;stroke-width:0.8;" x="212.4" xlink:href="#mc330c247d6" y="1666.08"/>
      </g>
     </g>
     <g id="text_4">
      <!-- 60% -->
      <defs>
       <path d="M 33.015625 40.375 
Q 26.375 40.375 22.484375 35.828125 
Q 18.609375 31.296875 18.609375 23.390625 
Q 18.609375 15.53125 22.484375 10.953125 
Q 26.375 6.390625 33.015625 6.390625 
Q 39.65625 6.390625 43.53125 10.953125 
Q 47.40625 15.53125 47.40625 23.390625 
Q 47.40625 31.296875 43.53125 35.828125 
Q 39.65625 40.375 33.015625 40.375 
z
M 52.59375 71.296875 
L 52.59375 62.3125 
Q 48.875 64.0625 45.09375 64.984375 
Q 41.3125 65.921875 37.59375 65.921875 
Q 27.828125 65.921875 22.671875 59.328125 
Q 17.53125 52.734375 16.796875 39.40625 
Q 19.671875 43.65625 24.015625 45.921875 
Q 28.375 48.1875 33.59375 48.1875 
Q 44.578125 48.1875 50.953125 41.515625 
Q 57.328125 34.859375 57.328125 23.390625 
Q 57.328125 12.15625 50.6875 5.359375 
Q 44.046875 -1.421875 33.015625 -1.421875 
Q 20.359375 -1.421875 13.671875 8.265625 
Q 6.984375 17.96875 6.984375 36.375 
Q 6.984375 53.65625 15.1875 63.9375 
Q 23.390625 74.21875 37.203125 74.21875 
Q 40.921875 74.21875 44.703125 73.484375 
Q 48.484375 72.75 52.59375 71.296875 
z
" id="DejaVuSans-54"/>
      </defs>
      <g transform="translate(215.159375 1695.306562)rotate(-90)scale(0.1 -0.1)">
       <use xlink:href="#DejaVuSans-54"/>
       <use x="63.623047" xlink:href="#DejaVuSans-48"/>
       <use x="127.246094" xlink:href="#DejaVuSans-37"/>
      </g>
     </g>
    </g>
    <g id="xtick_5">
     <g id="line2d_5">
      <g>
       <use style="stroke:#000000;stroke-width:0.8;" x="268.2" xlink:href="#mc330c247d6" y="1666.08"/>
      </g>
     </g>
     <g id="text_5">
      <!-- 80% -->
      <defs>
       <path d="M 31.78125 34.625 
Q 24.75 34.625 20.71875 30.859375 
Q 16.703125 27.09375 16.703125 20.515625 
Q 16.703125 13.921875 20.71875 10.15625 
Q 24.75 6.390625 31.78125 6.390625 
Q 38.8125 6.390625 42.859375 10.171875 
Q 46.921875 13.96875 46.921875 20.515625 
Q 46.921875 27.09375 42.890625 30.859375 
Q 38.875 34.625 31.78125 34.625 
z
M 21.921875 38.8125 
Q 15.578125 40.375 12.03125 44.71875 
Q 8.5 49.078125 8.5 55.328125 
Q 8.5 64.0625 14.71875 69.140625 
Q 20.953125 74.21875 31.78125 74.21875 
Q 42.671875 74.21875 48.875 69.140625 
Q 55.078125 64.0625 55.078125 55.328125 
Q 55.078125 49.078125 51.53125 44.71875 
Q 48 40.375 41.703125 38.8125 
Q 48.828125 37.15625 52.796875 32.3125 
Q 56.78125 27.484375 56.78125 20.515625 
Q 56.78125 9.90625 50.3125 4.234375 
Q 43.84375 -1.421875 31.78125 -1.421875 
Q 19.734375 -1.421875 13.25 4.234375 
Q 6.78125 9.90625 6.78125 20.515625 
Q 6.78125 27.484375 10.78125 32.3125 
Q 14.796875 37.15625 21.921875 38.8125 
z
M 18.3125 54.390625 
Q 18.3125 48.734375 21.84375 45.5625 
Q 25.390625 42.390625 31.78125 42.390625 
Q 38.140625 42.390625 41.71875 45.5625 
Q 45.3125 48.734375 45.3125 54.390625 
Q 45.3125 60.0625 41.71875 63.234375 
Q 38.140625 66.40625 31.78125 66.40625 
Q 25.390625 66.40625 21.84375 63.234375 
Q 18.3125 60.0625 18.3125 54.390625 
z
" id="DejaVuSans-56"/>
      </defs>
      <g transform="translate(270.959375 1695.306562)rotate(-90)scale(0.1 -0.1)">
       <use xlink:href="#DejaVuSans-56"/>
       <use x="63.623047" xlink:href="#DejaVuSans-48"/>
       <use x="127.246094" xlink:href="#DejaVuSans-37"/>
      </g>
     </g>
    </g>
    <g id="xtick_6">
     <g id="line2d_6">
      <g>
       <use style="stroke:#000000;stroke-width:0.8;" x="324" xlink:href="#mc330c247d6" y="1666.08"/>
      </g>
     </g>
     <g id="text_6">
      <!-- 100% -->
      <defs>
       <path d="M 12.40625 8.296875 
L 28.515625 8.296875 
L 28.515625 63.921875 
L 10.984375 60.40625 
L 10.984375 69.390625 
L 28.421875 72.90625 
L 38.28125 72.90625 
L 38.28125 8.296875 
L 54.390625 8.296875 
L 54.390625 0 
L 12.40625 0 
z
" id="DejaVuSans-49"/>
      </defs>
      <g transform="translate(326.759375 1701.669063)rotate(-90)scale(0.1 -0.1)">
       <use xlink:href="#DejaVuSans-49"/>
       <use x="63.623047" xlink:href="#DejaVuSans-48"/>
       <use x="127.246094" xlink:href="#DejaVuSans-48"/>
       <use x="190.869141" xlink:href="#DejaVuSans-37"/>
      </g>
     </g>
    </g>
    <g id="text_7">
     <!-- Percentage of structures with occupancy in a specific voxel -->
     <defs>
      <path d="M 19.671875 64.796875 
L 19.671875 37.40625 
L 32.078125 37.40625 
Q 38.96875 37.40625 42.71875 40.96875 
Q 46.484375 44.53125 46.484375 51.125 
Q 46.484375 57.671875 42.71875 61.234375 
Q 38.96875 64.796875 32.078125 64.796875 
z
M 9.8125 72.90625 
L 32.078125 72.90625 
Q 44.34375 72.90625 50.609375 67.359375 
Q 56.890625 61.8125 56.890625 51.125 
Q 56.890625 40.328125 50.609375 34.8125 
Q 44.34375 29.296875 32.078125 29.296875 
L 19.671875 29.296875 
L 19.671875 0 
L 9.8125 0 
z
" id="DejaVuSans-80"/>
      <path d="M 56.203125 29.59375 
L 56.203125 25.203125 
L 14.890625 25.203125 
Q 15.484375 15.921875 20.484375 11.0625 
Q 25.484375 6.203125 34.421875 6.203125 
Q 39.59375 6.203125 44.453125 7.46875 
Q 49.3125 8.734375 54.109375 11.28125 
L 54.109375 2.78125 
Q 49.265625 0.734375 44.1875 -0.34375 
Q 39.109375 -1.421875 33.890625 -1.421875 
Q 20.796875 -1.421875 13.15625 6.1875 
Q 5.515625 13.8125 5.515625 26.8125 
Q 5.515625 40.234375 12.765625 48.109375 
Q 20.015625 56 32.328125 56 
Q 43.359375 56 49.78125 48.890625 
Q 56.203125 41.796875 56.203125 29.59375 
z
M 47.21875 32.234375 
Q 47.125 39.59375 43.09375 43.984375 
Q 39.0625 48.390625 32.421875 48.390625 
Q 24.90625 48.390625 20.390625 44.140625 
Q 15.875 39.890625 15.1875 32.171875 
z
" id="DejaVuSans-101"/>
      <path d="M 41.109375 46.296875 
Q 39.59375 47.171875 37.8125 47.578125 
Q 36.03125 48 33.890625 48 
Q 26.265625 48 22.1875 43.046875 
Q 18.109375 38.09375 18.109375 28.8125 
L 18.109375 0 
L 9.078125 0 
L 9.078125 54.6875 
L 18.109375 54.6875 
L 18.109375 46.1875 
Q 20.953125 51.171875 25.484375 53.578125 
Q 30.03125 56 36.53125 56 
Q 37.453125 56 38.578125 55.875 
Q 39.703125 55.765625 41.0625 55.515625 
z
" id="DejaVuSans-114"/>
      <path d="M 48.78125 52.59375 
L 48.78125 44.1875 
Q 44.96875 46.296875 41.140625 47.34375 
Q 37.3125 48.390625 33.40625 48.390625 
Q 24.65625 48.390625 19.8125 42.84375 
Q 14.984375 37.3125 14.984375 27.296875 
Q 14.984375 17.28125 19.8125 11.734375 
Q 24.65625 6.203125 33.40625 6.203125 
Q 37.3125 6.203125 41.140625 7.25 
Q 44.96875 8.296875 48.78125 10.40625 
L 48.78125 2.09375 
Q 45.015625 0.34375 40.984375 -0.53125 
Q 36.96875 -1.421875 32.421875 -1.421875 
Q 20.0625 -1.421875 12.78125 6.34375 
Q 5.515625 14.109375 5.515625 27.296875 
Q 5.515625 40.671875 12.859375 48.328125 
Q 20.21875 56 33.015625 56 
Q 37.15625 56 41.109375 55.140625 
Q 45.0625 54.296875 48.78125 52.59375 
z
" id="DejaVuSans-99"/>
      <path d="M 54.890625 33.015625 
L 54.890625 0 
L 45.90625 0 
L 45.90625 32.71875 
Q 45.90625 40.484375 42.875 44.328125 
Q 39.84375 48.1875 33.796875 48.1875 
Q 26.515625 48.1875 22.3125 43.546875 
Q 18.109375 38.921875 18.109375 30.90625 
L 18.109375 0 
L 9.078125 0 
L 9.078125 54.6875 
L 18.109375 54.6875 
L 18.109375 46.1875 
Q 21.34375 51.125 25.703125 53.5625 
Q 30.078125 56 35.796875 56 
Q 45.21875 56 50.046875 50.171875 
Q 54.890625 44.34375 54.890625 33.015625 
z
" id="DejaVuSans-110"/>
      <path d="M 18.3125 70.21875 
L 18.3125 54.6875 
L 36.8125 54.6875 
L 36.8125 47.703125 
L 18.3125 47.703125 
L 18.3125 18.015625 
Q 18.3125 11.328125 20.140625 9.421875 
Q 21.96875 7.515625 27.59375 7.515625 
L 36.8125 7.515625 
L 36.8125 0 
L 27.59375 0 
Q 17.1875 0 13.234375 3.875 
Q 9.28125 7.765625 9.28125 18.015625 
L 9.28125 47.703125 
L 2.6875 47.703125 
L 2.6875 54.6875 
L 9.28125 54.6875 
L 9.28125 70.21875 
z
" id="DejaVuSans-116"/>
      <path d="M 34.28125 27.484375 
Q 23.390625 27.484375 19.1875 25 
Q 14.984375 22.515625 14.984375 16.5 
Q 14.984375 11.71875 18.140625 8.90625 
Q 21.296875 6.109375 26.703125 6.109375 
Q 34.1875 6.109375 38.703125 11.40625 
Q 43.21875 16.703125 43.21875 25.484375 
L 43.21875 27.484375 
z
M 52.203125 31.203125 
L 52.203125 0 
L 43.21875 0 
L 43.21875 8.296875 
Q 40.140625 3.328125 35.546875 0.953125 
Q 30.953125 -1.421875 24.3125 -1.421875 
Q 15.921875 -1.421875 10.953125 3.296875 
Q 6 8.015625 6 15.921875 
Q 6 25.140625 12.171875 29.828125 
Q 18.359375 34.515625 30.609375 34.515625 
L 43.21875 34.515625 
L 43.21875 35.40625 
Q 43.21875 41.609375 39.140625 45 
Q 35.0625 48.390625 27.6875 48.390625 
Q 23 48.390625 18.546875 47.265625 
Q 14.109375 46.140625 10.015625 43.890625 
L 10.015625 52.203125 
Q 14.9375 54.109375 19.578125 55.046875 
Q 24.21875 56 28.609375 56 
Q 40.484375 56 46.34375 49.84375 
Q 52.203125 43.703125 52.203125 31.203125 
z
" id="DejaVuSans-97"/>
      <path d="M 45.40625 27.984375 
Q 45.40625 37.75 41.375 43.109375 
Q 37.359375 48.484375 30.078125 48.484375 
Q 22.859375 48.484375 18.828125 43.109375 
Q 14.796875 37.75 14.796875 27.984375 
Q 14.796875 18.265625 18.828125 12.890625 
Q 22.859375 7.515625 30.078125 7.515625 
Q 37.359375 7.515625 41.375 12.890625 
Q 45.40625 18.265625 45.40625 27.984375 
z
M 54.390625 6.78125 
Q 54.390625 -7.171875 48.1875 -13.984375 
Q 42 -20.796875 29.203125 -20.796875 
Q 24.46875 -20.796875 20.265625 -20.09375 
Q 16.0625 -19.390625 12.109375 -17.921875 
L 12.109375 -9.1875 
Q 16.0625 -11.328125 19.921875 -12.34375 
Q 23.78125 -13.375 27.78125 -13.375 
Q 36.625 -13.375 41.015625 -8.765625 
Q 45.40625 -4.15625 45.40625 5.171875 
L 45.40625 9.625 
Q 42.625 4.78125 38.28125 2.390625 
Q 33.9375 0 27.875 0 
Q 17.828125 0 11.671875 7.65625 
Q 5.515625 15.328125 5.515625 27.984375 
Q 5.515625 40.671875 11.671875 48.328125 
Q 17.828125 56 27.875 56 
Q 33.9375 56 38.28125 53.609375 
Q 42.625 51.21875 45.40625 46.390625 
L 45.40625 54.6875 
L 54.390625 54.6875 
z
" id="DejaVuSans-103"/>
      <path id="DejaVuSans-32"/>
      <path d="M 30.609375 48.390625 
Q 23.390625 48.390625 19.1875 42.75 
Q 14.984375 37.109375 14.984375 27.296875 
Q 14.984375 17.484375 19.15625 11.84375 
Q 23.34375 6.203125 30.609375 6.203125 
Q 37.796875 6.203125 41.984375 11.859375 
Q 46.1875 17.53125 46.1875 27.296875 
Q 46.1875 37.015625 41.984375 42.703125 
Q 37.796875 48.390625 30.609375 48.390625 
z
M 30.609375 56 
Q 42.328125 56 49.015625 48.375 
Q 55.71875 40.765625 55.71875 27.296875 
Q 55.71875 13.875 49.015625 6.21875 
Q 42.328125 -1.421875 30.609375 -1.421875 
Q 18.84375 -1.421875 12.171875 6.21875 
Q 5.515625 13.875 5.515625 27.296875 
Q 5.515625 40.765625 12.171875 48.375 
Q 18.84375 56 30.609375 56 
z
" id="DejaVuSans-111"/>
      <path d="M 37.109375 75.984375 
L 37.109375 68.5 
L 28.515625 68.5 
Q 23.6875 68.5 21.796875 66.546875 
Q 19.921875 64.59375 19.921875 59.515625 
L 19.921875 54.6875 
L 34.71875 54.6875 
L 34.71875 47.703125 
L 19.921875 47.703125 
L 19.921875 0 
L 10.890625 0 
L 10.890625 47.703125 
L 2.296875 47.703125 
L 2.296875 54.6875 
L 10.890625 54.6875 
L 10.890625 58.5 
Q 10.890625 67.625 15.140625 71.796875 
Q 19.390625 75.984375 28.609375 75.984375 
z
" id="DejaVuSans-102"/>
      <path d="M 44.28125 53.078125 
L 44.28125 44.578125 
Q 40.484375 46.53125 36.375 47.5 
Q 32.28125 48.484375 27.875 48.484375 
Q 21.1875 48.484375 17.84375 46.4375 
Q 14.5 44.390625 14.5 40.28125 
Q 14.5 37.15625 16.890625 35.375 
Q 19.28125 33.59375 26.515625 31.984375 
L 29.59375 31.296875 
Q 39.15625 29.25 43.1875 25.515625 
Q 47.21875 21.78125 47.21875 15.09375 
Q 47.21875 7.46875 41.1875 3.015625 
Q 35.15625 -1.421875 24.609375 -1.421875 
Q 20.21875 -1.421875 15.453125 -0.5625 
Q 10.6875 0.296875 5.421875 2 
L 5.421875 11.28125 
Q 10.40625 8.6875 15.234375 7.390625 
Q 20.0625 6.109375 24.8125 6.109375 
Q 31.15625 6.109375 34.5625 8.28125 
Q 37.984375 10.453125 37.984375 14.40625 
Q 37.984375 18.0625 35.515625 20.015625 
Q 33.0625 21.96875 24.703125 23.78125 
L 21.578125 24.515625 
Q 13.234375 26.265625 9.515625 29.90625 
Q 5.8125 33.546875 5.8125 39.890625 
Q 5.8125 47.609375 11.28125 51.796875 
Q 16.75 56 26.8125 56 
Q 31.78125 56 36.171875 55.265625 
Q 40.578125 54.546875 44.28125 53.078125 
z
" id="DejaVuSans-115"/>
      <path d="M 8.5 21.578125 
L 8.5 54.6875 
L 17.484375 54.6875 
L 17.484375 21.921875 
Q 17.484375 14.15625 20.5 10.265625 
Q 23.53125 6.390625 29.59375 6.390625 
Q 36.859375 6.390625 41.078125 11.03125 
Q 45.3125 15.671875 45.3125 23.6875 
L 45.3125 54.6875 
L 54.296875 54.6875 
L 54.296875 0 
L 45.3125 0 
L 45.3125 8.40625 
Q 42.046875 3.421875 37.71875 1 
Q 33.40625 -1.421875 27.6875 -1.421875 
Q 18.265625 -1.421875 13.375 4.4375 
Q 8.5 10.296875 8.5 21.578125 
z
M 31.109375 56 
z
" id="DejaVuSans-117"/>
      <path d="M 4.203125 54.6875 
L 13.1875 54.6875 
L 24.421875 12.015625 
L 35.59375 54.6875 
L 46.1875 54.6875 
L 57.421875 12.015625 
L 68.609375 54.6875 
L 77.59375 54.6875 
L 63.28125 0 
L 52.6875 0 
L 40.921875 44.828125 
L 29.109375 0 
L 18.5 0 
z
" id="DejaVuSans-119"/>
      <path d="M 9.421875 54.6875 
L 18.40625 54.6875 
L 18.40625 0 
L 9.421875 0 
z
M 9.421875 75.984375 
L 18.40625 75.984375 
L 18.40625 64.59375 
L 9.421875 64.59375 
z
" id="DejaVuSans-105"/>
      <path d="M 54.890625 33.015625 
L 54.890625 0 
L 45.90625 0 
L 45.90625 32.71875 
Q 45.90625 40.484375 42.875 44.328125 
Q 39.84375 48.1875 33.796875 48.1875 
Q 26.515625 48.1875 22.3125 43.546875 
Q 18.109375 38.921875 18.109375 30.90625 
L 18.109375 0 
L 9.078125 0 
L 9.078125 75.984375 
L 18.109375 75.984375 
L 18.109375 46.1875 
Q 21.34375 51.125 25.703125 53.5625 
Q 30.078125 56 35.796875 56 
Q 45.21875 56 50.046875 50.171875 
Q 54.890625 44.34375 54.890625 33.015625 
z
" id="DejaVuSans-104"/>
      <path d="M 18.109375 8.203125 
L 18.109375 -20.796875 
L 9.078125 -20.796875 
L 9.078125 54.6875 
L 18.109375 54.6875 
L 18.109375 46.390625 
Q 20.953125 51.265625 25.265625 53.625 
Q 29.59375 56 35.59375 56 
Q 45.5625 56 51.78125 48.09375 
Q 58.015625 40.1875 58.015625 27.296875 
Q 58.015625 14.40625 51.78125 6.484375 
Q 45.5625 -1.421875 35.59375 -1.421875 
Q 29.59375 -1.421875 25.265625 0.953125 
Q 20.953125 3.328125 18.109375 8.203125 
z
M 48.6875 27.296875 
Q 48.6875 37.203125 44.609375 42.84375 
Q 40.53125 48.484375 33.40625 48.484375 
Q 26.265625 48.484375 22.1875 42.84375 
Q 18.109375 37.203125 18.109375 27.296875 
Q 18.109375 17.390625 22.1875 11.75 
Q 26.265625 6.109375 33.40625 6.109375 
Q 40.53125 6.109375 44.609375 11.75 
Q 48.6875 17.390625 48.6875 27.296875 
z
" id="DejaVuSans-112"/>
      <path d="M 32.171875 -5.078125 
Q 28.375 -14.84375 24.75 -17.8125 
Q 21.140625 -20.796875 15.09375 -20.796875 
L 7.90625 -20.796875 
L 7.90625 -13.28125 
L 13.1875 -13.28125 
Q 16.890625 -13.28125 18.9375 -11.515625 
Q 21 -9.765625 23.484375 -3.21875 
L 25.09375 0.875 
L 2.984375 54.6875 
L 12.5 54.6875 
L 29.59375 11.921875 
L 46.6875 54.6875 
L 56.203125 54.6875 
z
" id="DejaVuSans-121"/>
      <path d="M 2.984375 54.6875 
L 12.5 54.6875 
L 29.59375 8.796875 
L 46.6875 54.6875 
L 56.203125 54.6875 
L 35.6875 0 
L 23.484375 0 
z
" id="DejaVuSans-118"/>
      <path d="M 54.890625 54.6875 
L 35.109375 28.078125 
L 55.90625 0 
L 45.3125 0 
L 29.390625 21.484375 
L 13.484375 0 
L 2.875 0 
L 24.125 28.609375 
L 4.6875 54.6875 
L 15.28125 54.6875 
L 29.78125 35.203125 
L 44.28125 54.6875 
z
" id="DejaVuSans-120"/>
      <path d="M 9.421875 75.984375 
L 18.40625 75.984375 
L 18.40625 0 
L 9.421875 0 
z
" id="DejaVuSans-108"/>
     </defs>
     <g transform="translate(35.750781 1713.2675)scale(0.1 -0.1)">
      <use xlink:href="#DejaVuSans-80"/>
      <use x="60.255859" xlink:href="#DejaVuSans-101"/>
      <use x="121.779297" xlink:href="#DejaVuSans-114"/>
      <use x="162.861328" xlink:href="#DejaVuSans-99"/>
      <use x="217.841797" xlink:href="#DejaVuSans-101"/>
      <use x="279.365234" xlink:href="#DejaVuSans-110"/>
      <use x="342.744141" xlink:href="#DejaVuSans-116"/>
      <use x="381.953125" xlink:href="#DejaVuSans-97"/>
      <use x="443.232422" xlink:href="#DejaVuSans-103"/>
      <use x="506.708984" xlink:href="#DejaVuSans-101"/>
      <use x="568.232422" xlink:href="#DejaVuSans-32"/>
      <use x="600.019531" xlink:href="#DejaVuSans-111"/>
      <use x="661.201172" xlink:href="#DejaVuSans-102"/>
      <use x="696.40625" xlink:href="#DejaVuSans-32"/>
      <use x="728.193359" xlink:href="#DejaVuSans-115"/>
      <use x="780.292969" xlink:href="#DejaVuSans-116"/>
      <use x="819.501953" xlink:href="#DejaVuSans-114"/>
      <use x="860.615234" xlink:href="#DejaVuSans-117"/>
      <use x="923.994141" xlink:href="#DejaVuSans-99"/>
      <use x="978.974609" xlink:href="#DejaVuSans-116"/>
      <use x="1018.183594" xlink:href="#DejaVuSans-117"/>
      <use x="1081.5625" xlink:href="#DejaVuSans-114"/>
      <use x="1122.644531" xlink:href="#DejaVuSans-101"/>
      <use x="1184.167969" xlink:href="#DejaVuSans-115"/>
      <use x="1236.267578" xlink:href="#DejaVuSans-32"/>
      <use x="1268.054688" xlink:href="#DejaVuSans-119"/>
      <use x="1349.841797" xlink:href="#DejaVuSans-105"/>
      <use x="1377.625" xlink:href="#DejaVuSans-116"/>
      <use x="1416.833984" xlink:href="#DejaVuSans-104"/>
      <use x="1480.212891" xlink:href="#DejaVuSans-32"/>
      <use x="1512" xlink:href="#DejaVuSans-111"/>
      <use x="1573.181641" xlink:href="#DejaVuSans-99"/>
      <use x="1628.162109" xlink:href="#DejaVuSans-99"/>
      <use x="1683.142578" xlink:href="#DejaVuSans-117"/>
      <use x="1746.521484" xlink:href="#DejaVuSans-112"/>
      <use x="1809.998047" xlink:href="#DejaVuSans-97"/>
      <use x="1871.277344" xlink:href="#DejaVuSans-110"/>
      <use x="1934.65625" xlink:href="#DejaVuSans-99"/>
      <use x="1989.636719" xlink:href="#DejaVuSans-121"/>
      <use x="2048.816406" xlink:href="#DejaVuSans-32"/>
      <use x="2080.603516" xlink:href="#DejaVuSans-105"/>
      <use x="2108.386719" xlink:href="#DejaVuSans-110"/>
      <use x="2171.765625" xlink:href="#DejaVuSans-32"/>
      <use x="2203.552734" xlink:href="#DejaVuSans-97"/>
      <use x="2264.832031" xlink:href="#DejaVuSans-32"/>
      <use x="2296.619141" xlink:href="#DejaVuSans-115"/>
      <use x="2348.71875" xlink:href="#DejaVuSans-112"/>
      <use x="2412.195312" xlink:href="#DejaVuSans-101"/>
      <use x="2473.71875" xlink:href="#DejaVuSans-99"/>
      <use x="2528.699219" xlink:href="#DejaVuSans-105"/>
      <use x="2556.482422" xlink:href="#DejaVuSans-102"/>
      <use x="2591.6875" xlink:href="#DejaVuSans-105"/>
      <use x="2619.470703" xlink:href="#DejaVuSans-99"/>
      <use x="2674.451172" xlink:href="#DejaVuSans-32"/>
      <use x="2706.238281" xlink:href="#DejaVuSans-118"/>
      <use x="2765.417969" xlink:href="#DejaVuSans-111"/>
      <use x="2826.552734" xlink:href="#DejaVuSans-120"/>
      <use x="2885.685547" xlink:href="#DejaVuSans-101"/>
      <use x="2947.208984" xlink:href="#DejaVuSans-108"/>
     </g>
    </g>
   </g>
   <g id="matplotlib.axis_2">
    <g id="ytick_1">
     <g id="line2d_7">
      <defs>
       <path d="M 0 0 
L -3.5 0 
" id="m2e287e9ec1" style="stroke:#000000;stroke-width:0.8;"/>
      </defs>
      <g>
       <use style="stroke:#000000;stroke-width:0.8;" x="45" xlink:href="#m2e287e9ec1" y="1590.441081"/>
      </g>
     </g>
     <g id="text_8">
      <!-- 22_9_8 -->
      <defs>
       <path d="M 50.984375 -16.609375 
L 50.984375 -23.578125 
L -0.984375 -23.578125 
L -0.984375 -16.609375 
z
" id="DejaVuSans-95"/>
       <path d="M 10.984375 1.515625 
L 10.984375 10.5 
Q 14.703125 8.734375 18.5 7.8125 
Q 22.3125 6.890625 25.984375 6.890625 
Q 35.75 6.890625 40.890625 13.453125 
Q 46.046875 20.015625 46.78125 33.40625 
Q 43.953125 29.203125 39.59375 26.953125 
Q 35.25 24.703125 29.984375 24.703125 
Q 19.046875 24.703125 12.671875 31.3125 
Q 6.296875 37.9375 6.296875 49.421875 
Q 6.296875 60.640625 12.9375 67.421875 
Q 19.578125 74.21875 30.609375 74.21875 
Q 43.265625 74.21875 49.921875 64.515625 
Q 56.59375 54.828125 56.59375 36.375 
Q 56.59375 19.140625 48.40625 8.859375 
Q 40.234375 -1.421875 26.421875 -1.421875 
Q 22.703125 -1.421875 18.890625 -0.6875 
Q 15.09375 0.046875 10.984375 1.515625 
z
M 30.609375 32.421875 
Q 37.25 32.421875 41.125 36.953125 
Q 45.015625 41.5 45.015625 49.421875 
Q 45.015625 57.28125 41.125 61.84375 
Q 37.25 66.40625 30.609375 66.40625 
Q 23.96875 66.40625 20.09375 61.84375 
Q 16.21875 57.28125 16.21875 49.421875 
Q 16.21875 41.5 20.09375 36.953125 
Q 23.96875 32.421875 30.609375 32.421875 
z
" id="DejaVuSans-57"/>
      </defs>
      <g transform="translate(2.55 1594.152019)scale(0.1 -0.1)">
       <use xlink:href="#DejaVuSans-50"/>
       <use x="63.623047" xlink:href="#DejaVuSans-50"/>
       <use x="127.246094" xlink:href="#DejaVuSans-95"/>
       <use x="177.246094" xlink:href="#DejaVuSans-57"/>
       <use x="240.869141" xlink:href="#DejaVuSans-95"/>
       <use x="290.869141" xlink:href="#DejaVuSans-56"/>
      </g>
     </g>
    </g>
    <g id="ytick_2">
     <g id="line2d_8">
      <g>
       <use style="stroke:#000000;stroke-width:0.8;" x="45" xlink:href="#m2e287e9ec1" y="1565.143784"/>
      </g>
     </g>
     <g id="text_9">
      <!-- 22_10_8 -->
      <g transform="translate(-3.8125 1568.854721)scale(0.1 -0.1)">
       <use xlink:href="#DejaVuSans-50"/>
       <use x="63.623047" xlink:href="#DejaVuSans-50"/>
       <use x="127.246094" xlink:href="#DejaVuSans-95"/>
       <use x="177.246094" xlink:href="#DejaVuSans-49"/>
       <use x="240.869141" xlink:href="#DejaVuSans-48"/>
       <use x="304.492188" xlink:href="#DejaVuSans-95"/>
       <use x="354.492188" xlink:href="#DejaVuSans-56"/>
      </g>
     </g>
    </g>
    <g id="ytick_3">
     <g id="line2d_9">
      <g>
       <use style="stroke:#000000;stroke-width:0.8;" x="45" xlink:href="#m2e287e9ec1" y="1539.846486"/>
      </g>
     </g>
     <g id="text_10">
      <!-- 23_10_8 -->
      <defs>
       <path d="M 40.578125 39.3125 
Q 47.65625 37.796875 51.625 33 
Q 55.609375 28.21875 55.609375 21.1875 
Q 55.609375 10.40625 48.1875 4.484375 
Q 40.765625 -1.421875 27.09375 -1.421875 
Q 22.515625 -1.421875 17.65625 -0.515625 
Q 12.796875 0.390625 7.625 2.203125 
L 7.625 11.71875 
Q 11.71875 9.328125 16.59375 8.109375 
Q 21.484375 6.890625 26.8125 6.890625 
Q 36.078125 6.890625 40.9375 10.546875 
Q 45.796875 14.203125 45.796875 21.1875 
Q 45.796875 27.640625 41.28125 31.265625 
Q 36.765625 34.90625 28.71875 34.90625 
L 20.21875 34.90625 
L 20.21875 43.015625 
L 29.109375 43.015625 
Q 36.375 43.015625 40.234375 45.921875 
Q 44.09375 48.828125 44.09375 54.296875 
Q 44.09375 59.90625 40.109375 62.90625 
Q 36.140625 65.921875 28.71875 65.921875 
Q 24.65625 65.921875 20.015625 65.03125 
Q 15.375 64.15625 9.8125 62.3125 
L 9.8125 71.09375 
Q 15.4375 72.65625 20.34375 73.4375 
Q 25.25 74.21875 29.59375 74.21875 
Q 40.828125 74.21875 47.359375 69.109375 
Q 53.90625 64.015625 53.90625 55.328125 
Q 53.90625 49.265625 50.4375 45.09375 
Q 46.96875 40.921875 40.578125 39.3125 
z
" id="DejaVuSans-51"/>
      </defs>
      <g transform="translate(-3.8125 1543.557424)scale(0.1 -0.1)">
       <use xlink:href="#DejaVuSans-50"/>
       <use x="63.623047" xlink:href="#DejaVuSans-51"/>
       <use x="127.246094" xlink:href="#DejaVuSans-95"/>
       <use x="177.246094" xlink:href="#DejaVuSans-49"/>
       <use x="240.869141" xlink:href="#DejaVuSans-48"/>
       <use x="304.492188" xlink:href="#DejaVuSans-95"/>
       <use x="354.492188" xlink:href="#DejaVuSans-56"/>
      </g>
     </g>
    </g>
    <g id="ytick_4">
     <g id="line2d_10">
      <g>
       <use style="stroke:#000000;stroke-width:0.8;" x="45" xlink:href="#m2e287e9ec1" y="1514.549189"/>
      </g>
     </g>
     <g id="text_11">
      <!-- 22_11_8 -->
      <g transform="translate(-3.8125 1518.260127)scale(0.1 -0.1)">
       <use xlink:href="#DejaVuSans-50"/>
       <use x="63.623047" xlink:href="#DejaVuSans-50"/>
       <use x="127.246094" xlink:href="#DejaVuSans-95"/>
       <use x="177.246094" xlink:href="#DejaVuSans-49"/>
       <use x="240.869141" xlink:href="#DejaVuSans-49"/>
       <use x="304.492188" xlink:href="#DejaVuSans-95"/>
       <use x="354.492188" xlink:href="#DejaVuSans-56"/>
      </g>
     </g>
    </g>
    <g id="ytick_5">
     <g id="line2d_11">
      <g>
       <use style="stroke:#000000;stroke-width:0.8;" x="45" xlink:href="#m2e287e9ec1" y="1489.251892"/>
      </g>
     </g>
     <g id="text_12">
      <!-- 23_11_8 -->
      <g transform="translate(-3.8125 1492.962829)scale(0.1 -0.1)">
       <use xlink:href="#DejaVuSans-50"/>
       <use x="63.623047" xlink:href="#DejaVuSans-51"/>
       <use x="127.246094" xlink:href="#DejaVuSans-95"/>
       <use x="177.246094" xlink:href="#DejaVuSans-49"/>
       <use x="240.869141" xlink:href="#DejaVuSans-49"/>
       <use x="304.492188" xlink:href="#DejaVuSans-95"/>
       <use x="354.492188" xlink:href="#DejaVuSans-56"/>
      </g>
     </g>
    </g>
    <g id="ytick_6">
     <g id="line2d_12">
      <g>
       <use style="stroke:#000000;stroke-width:0.8;" x="45" xlink:href="#m2e287e9ec1" y="1463.954595"/>
      </g>
     </g>
     <g id="text_13">
      <!-- 23_12_8 -->
      <g transform="translate(-3.8125 1467.665532)scale(0.1 -0.1)">
       <use xlink:href="#DejaVuSans-50"/>
       <use x="63.623047" xlink:href="#DejaVuSans-51"/>
       <use x="127.246094" xlink:href="#DejaVuSans-95"/>
       <use x="177.246094" xlink:href="#DejaVuSans-49"/>
       <use x="240.869141" xlink:href="#DejaVuSans-50"/>
       <use x="304.492188" xlink:href="#DejaVuSans-95"/>
       <use x="354.492188" xlink:href="#DejaVuSans-56"/>
      </g>
     </g>
    </g>
    <g id="ytick_7">
     <g id="line2d_13">
      <g>
       <use style="stroke:#000000;stroke-width:0.8;" x="45" xlink:href="#m2e287e9ec1" y="1438.657297"/>
      </g>
     </g>
     <g id="text_14">
      <!-- 24_12_8 -->
      <g transform="translate(-3.8125 1442.368235)scale(0.1 -0.1)">
       <use xlink:href="#DejaVuSans-50"/>
       <use x="63.623047" xlink:href="#DejaVuSans-52"/>
       <use x="127.246094" xlink:href="#DejaVuSans-95"/>
       <use x="177.246094" xlink:href="#DejaVuSans-49"/>
       <use x="240.869141" xlink:href="#DejaVuSans-50"/>
       <use x="304.492188" xlink:href="#DejaVuSans-95"/>
       <use x="354.492188" xlink:href="#DejaVuSans-56"/>
      </g>
     </g>
    </g>
    <g id="ytick_8">
     <g id="line2d_14">
      <g>
       <use style="stroke:#000000;stroke-width:0.8;" x="45" xlink:href="#m2e287e9ec1" y="1413.36"/>
      </g>
     </g>
     <g id="text_15">
      <!-- 22_8_9 -->
      <g transform="translate(2.55 1417.070938)scale(0.1 -0.1)">
       <use xlink:href="#DejaVuSans-50"/>
       <use x="63.623047" xlink:href="#DejaVuSans-50"/>
       <use x="127.246094" xlink:href="#DejaVuSans-95"/>
       <use x="177.246094" xlink:href="#DejaVuSans-56"/>
       <use x="240.869141" xlink:href="#DejaVuSans-95"/>
       <use x="290.869141" xlink:href="#DejaVuSans-57"/>
      </g>
     </g>
    </g>
    <g id="ytick_9">
     <g id="line2d_15">
      <g>
       <use style="stroke:#000000;stroke-width:0.8;" x="45" xlink:href="#m2e287e9ec1" y="1388.062703"/>
      </g>
     </g>
     <g id="text_16">
      <!-- 22_9_9 -->
      <g transform="translate(2.55 1391.77364)scale(0.1 -0.1)">
       <use xlink:href="#DejaVuSans-50"/>
       <use x="63.623047" xlink:href="#DejaVuSans-50"/>
       <use x="127.246094" xlink:href="#DejaVuSans-95"/>
       <use x="177.246094" xlink:href="#DejaVuSans-57"/>
       <use x="240.869141" xlink:href="#DejaVuSans-95"/>
       <use x="290.869141" xlink:href="#DejaVuSans-57"/>
      </g>
     </g>
    </g>
    <g id="ytick_10">
     <g id="line2d_16">
      <g>
       <use style="stroke:#000000;stroke-width:0.8;" x="45" xlink:href="#m2e287e9ec1" y="1362.765405"/>
      </g>
     </g>
     <g id="text_17">
      <!-- 23_9_9 -->
      <g transform="translate(2.55 1366.476343)scale(0.1 -0.1)">
       <use xlink:href="#DejaVuSans-50"/>
       <use x="63.623047" xlink:href="#DejaVuSans-51"/>
       <use x="127.246094" xlink:href="#DejaVuSans-95"/>
       <use x="177.246094" xlink:href="#DejaVuSans-57"/>
       <use x="240.869141" xlink:href="#DejaVuSans-95"/>
       <use x="290.869141" xlink:href="#DejaVuSans-57"/>
      </g>
     </g>
    </g>
    <g id="ytick_11">
     <g id="line2d_17">
      <g>
       <use style="stroke:#000000;stroke-width:0.8;" x="45" xlink:href="#m2e287e9ec1" y="1337.468108"/>
      </g>
     </g>
     <g id="text_18">
      <!-- 22_10_9 -->
      <g transform="translate(-3.8125 1341.179046)scale(0.1 -0.1)">
       <use xlink:href="#DejaVuSans-50"/>
       <use x="63.623047" xlink:href="#DejaVuSans-50"/>
       <use x="127.246094" xlink:href="#DejaVuSans-95"/>
       <use x="177.246094" xlink:href="#DejaVuSans-49"/>
       <use x="240.869141" xlink:href="#DejaVuSans-48"/>
       <use x="304.492188" xlink:href="#DejaVuSans-95"/>
       <use x="354.492188" xlink:href="#DejaVuSans-57"/>
      </g>
     </g>
    </g>
    <g id="ytick_12">
     <g id="line2d_18">
      <g>
       <use style="stroke:#000000;stroke-width:0.8;" x="45" xlink:href="#m2e287e9ec1" y="1312.170811"/>
      </g>
     </g>
     <g id="text_19">
      <!-- 23_10_9 -->
      <g transform="translate(-3.8125 1315.881748)scale(0.1 -0.1)">
       <use xlink:href="#DejaVuSans-50"/>
       <use x="63.623047" xlink:href="#DejaVuSans-51"/>
       <use x="127.246094" xlink:href="#DejaVuSans-95"/>
       <use x="177.246094" xlink:href="#DejaVuSans-49"/>
       <use x="240.869141" xlink:href="#DejaVuSans-48"/>
       <use x="304.492188" xlink:href="#DejaVuSans-95"/>
       <use x="354.492188" xlink:href="#DejaVuSans-57"/>
      </g>
     </g>
    </g>
    <g id="ytick_13">
     <g id="line2d_19">
      <g>
       <use style="stroke:#000000;stroke-width:0.8;" x="45" xlink:href="#m2e287e9ec1" y="1286.873514"/>
      </g>
     </g>
     <g id="text_20">
      <!-- 22_11_9 -->
      <g transform="translate(-3.8125 1290.584451)scale(0.1 -0.1)">
       <use xlink:href="#DejaVuSans-50"/>
       <use x="63.623047" xlink:href="#DejaVuSans-50"/>
       <use x="127.246094" xlink:href="#DejaVuSans-95"/>
       <use x="177.246094" xlink:href="#DejaVuSans-49"/>
       <use x="240.869141" xlink:href="#DejaVuSans-49"/>
       <use x="304.492188" xlink:href="#DejaVuSans-95"/>
       <use x="354.492188" xlink:href="#DejaVuSans-57"/>
      </g>
     </g>
    </g>
    <g id="ytick_14">
     <g id="line2d_20">
      <g>
       <use style="stroke:#000000;stroke-width:0.8;" x="45" xlink:href="#m2e287e9ec1" y="1261.576216"/>
      </g>
     </g>
     <g id="text_21">
      <!-- 23_11_9 -->
      <g transform="translate(-3.8125 1265.287154)scale(0.1 -0.1)">
       <use xlink:href="#DejaVuSans-50"/>
       <use x="63.623047" xlink:href="#DejaVuSans-51"/>
       <use x="127.246094" xlink:href="#DejaVuSans-95"/>
       <use x="177.246094" xlink:href="#DejaVuSans-49"/>
       <use x="240.869141" xlink:href="#DejaVuSans-49"/>
       <use x="304.492188" xlink:href="#DejaVuSans-95"/>
       <use x="354.492188" xlink:href="#DejaVuSans-57"/>
      </g>
     </g>
    </g>
    <g id="ytick_15">
     <g id="line2d_21">
      <g>
       <use style="stroke:#000000;stroke-width:0.8;" x="45" xlink:href="#m2e287e9ec1" y="1236.278919"/>
      </g>
     </g>
     <g id="text_22">
      <!-- 24_11_9 -->
      <g transform="translate(-3.8125 1239.989856)scale(0.1 -0.1)">
       <use xlink:href="#DejaVuSans-50"/>
       <use x="63.623047" xlink:href="#DejaVuSans-52"/>
       <use x="127.246094" xlink:href="#DejaVuSans-95"/>
       <use x="177.246094" xlink:href="#DejaVuSans-49"/>
       <use x="240.869141" xlink:href="#DejaVuSans-49"/>
       <use x="304.492188" xlink:href="#DejaVuSans-95"/>
       <use x="354.492188" xlink:href="#DejaVuSans-57"/>
      </g>
     </g>
    </g>
    <g id="ytick_16">
     <g id="line2d_22">
      <g>
       <use style="stroke:#000000;stroke-width:0.8;" x="45" xlink:href="#m2e287e9ec1" y="1210.981622"/>
      </g>
     </g>
     <g id="text_23">
      <!-- 22_12_9 -->
      <g transform="translate(-3.8125 1214.692559)scale(0.1 -0.1)">
       <use xlink:href="#DejaVuSans-50"/>
       <use x="63.623047" xlink:href="#DejaVuSans-50"/>
       <use x="127.246094" xlink:href="#DejaVuSans-95"/>
       <use x="177.246094" xlink:href="#DejaVuSans-49"/>
       <use x="240.869141" xlink:href="#DejaVuSans-50"/>
       <use x="304.492188" xlink:href="#DejaVuSans-95"/>
       <use x="354.492188" xlink:href="#DejaVuSans-57"/>
      </g>
     </g>
    </g>
    <g id="ytick_17">
     <g id="line2d_23">
      <g>
       <use style="stroke:#000000;stroke-width:0.8;" x="45" xlink:href="#m2e287e9ec1" y="1185.684324"/>
      </g>
     </g>
     <g id="text_24">
      <!-- 23_12_9 -->
      <g transform="translate(-3.8125 1189.395262)scale(0.1 -0.1)">
       <use xlink:href="#DejaVuSans-50"/>
       <use x="63.623047" xlink:href="#DejaVuSans-51"/>
       <use x="127.246094" xlink:href="#DejaVuSans-95"/>
       <use x="177.246094" xlink:href="#DejaVuSans-49"/>
       <use x="240.869141" xlink:href="#DejaVuSans-50"/>
       <use x="304.492188" xlink:href="#DejaVuSans-95"/>
       <use x="354.492188" xlink:href="#DejaVuSans-57"/>
      </g>
     </g>
    </g>
    <g id="ytick_18">
     <g id="line2d_24">
      <g>
       <use style="stroke:#000000;stroke-width:0.8;" x="45" xlink:href="#m2e287e9ec1" y="1160.387027"/>
      </g>
     </g>
     <g id="text_25">
      <!-- 24_12_9 -->
      <g transform="translate(-3.8125 1164.097965)scale(0.1 -0.1)">
       <use xlink:href="#DejaVuSans-50"/>
       <use x="63.623047" xlink:href="#DejaVuSans-52"/>
       <use x="127.246094" xlink:href="#DejaVuSans-95"/>
       <use x="177.246094" xlink:href="#DejaVuSans-49"/>
       <use x="240.869141" xlink:href="#DejaVuSans-50"/>
       <use x="304.492188" xlink:href="#DejaVuSans-95"/>
       <use x="354.492188" xlink:href="#DejaVuSans-57"/>
      </g>
     </g>
    </g>
    <g id="ytick_19">
     <g id="line2d_25">
      <g>
       <use style="stroke:#000000;stroke-width:0.8;" x="45" xlink:href="#m2e287e9ec1" y="1135.08973"/>
      </g>
     </g>
     <g id="text_26">
      <!-- 22_8_10 -->
      <g transform="translate(-3.8125 1138.800667)scale(0.1 -0.1)">
       <use xlink:href="#DejaVuSans-50"/>
       <use x="63.623047" xlink:href="#DejaVuSans-50"/>
       <use x="127.246094" xlink:href="#DejaVuSans-95"/>
       <use x="177.246094" xlink:href="#DejaVuSans-56"/>
       <use x="240.869141" xlink:href="#DejaVuSans-95"/>
       <use x="290.869141" xlink:href="#DejaVuSans-49"/>
       <use x="354.492188" xlink:href="#DejaVuSans-48"/>
      </g>
     </g>
    </g>
    <g id="ytick_20">
     <g id="line2d_26">
      <g>
       <use style="stroke:#000000;stroke-width:0.8;" x="45" xlink:href="#m2e287e9ec1" y="1109.792432"/>
      </g>
     </g>
     <g id="text_27">
      <!-- 21_9_10 -->
      <g transform="translate(-3.8125 1113.50337)scale(0.1 -0.1)">
       <use xlink:href="#DejaVuSans-50"/>
       <use x="63.623047" xlink:href="#DejaVuSans-49"/>
       <use x="127.246094" xlink:href="#DejaVuSans-95"/>
       <use x="177.246094" xlink:href="#DejaVuSans-57"/>
       <use x="240.869141" xlink:href="#DejaVuSans-95"/>
       <use x="290.869141" xlink:href="#DejaVuSans-49"/>
       <use x="354.492188" xlink:href="#DejaVuSans-48"/>
      </g>
     </g>
    </g>
    <g id="ytick_21">
     <g id="line2d_27">
      <g>
       <use style="stroke:#000000;stroke-width:0.8;" x="45" xlink:href="#m2e287e9ec1" y="1084.495135"/>
      </g>
     </g>
     <g id="text_28">
      <!-- 22_9_10 -->
      <g transform="translate(-3.8125 1088.206073)scale(0.1 -0.1)">
       <use xlink:href="#DejaVuSans-50"/>
       <use x="63.623047" xlink:href="#DejaVuSans-50"/>
       <use x="127.246094" xlink:href="#DejaVuSans-95"/>
       <use x="177.246094" xlink:href="#DejaVuSans-57"/>
       <use x="240.869141" xlink:href="#DejaVuSans-95"/>
       <use x="290.869141" xlink:href="#DejaVuSans-49"/>
       <use x="354.492188" xlink:href="#DejaVuSans-48"/>
      </g>
     </g>
    </g>
    <g id="ytick_22">
     <g id="line2d_28">
      <g>
       <use style="stroke:#000000;stroke-width:0.8;" x="45" xlink:href="#m2e287e9ec1" y="1059.197838"/>
      </g>
     </g>
     <g id="text_29">
      <!-- 23_9_10 -->
      <g transform="translate(-3.8125 1062.908775)scale(0.1 -0.1)">
       <use xlink:href="#DejaVuSans-50"/>
       <use x="63.623047" xlink:href="#DejaVuSans-51"/>
       <use x="127.246094" xlink:href="#DejaVuSans-95"/>
       <use x="177.246094" xlink:href="#DejaVuSans-57"/>
       <use x="240.869141" xlink:href="#DejaVuSans-95"/>
       <use x="290.869141" xlink:href="#DejaVuSans-49"/>
       <use x="354.492188" xlink:href="#DejaVuSans-48"/>
      </g>
     </g>
    </g>
    <g id="ytick_23">
     <g id="line2d_29">
      <g>
       <use style="stroke:#000000;stroke-width:0.8;" x="45" xlink:href="#m2e287e9ec1" y="1033.900541"/>
      </g>
     </g>
     <g id="text_30">
      <!-- 21_10_10 -->
      <g transform="translate(-10.175 1037.611478)scale(0.1 -0.1)">
       <use xlink:href="#DejaVuSans-50"/>
       <use x="63.623047" xlink:href="#DejaVuSans-49"/>
       <use x="127.246094" xlink:href="#DejaVuSans-95"/>
       <use x="177.246094" xlink:href="#DejaVuSans-49"/>
       <use x="240.869141" xlink:href="#DejaVuSans-48"/>
       <use x="304.492188" xlink:href="#DejaVuSans-95"/>
       <use x="354.492188" xlink:href="#DejaVuSans-49"/>
       <use x="418.115234" xlink:href="#DejaVuSans-48"/>
      </g>
     </g>
    </g>
    <g id="ytick_24">
     <g id="line2d_30">
      <g>
       <use style="stroke:#000000;stroke-width:0.8;" x="45" xlink:href="#m2e287e9ec1" y="1008.603243"/>
      </g>
     </g>
     <g id="text_31">
      <!-- 22_10_10 -->
      <g transform="translate(-10.175 1012.314181)scale(0.1 -0.1)">
       <use xlink:href="#DejaVuSans-50"/>
       <use x="63.623047" xlink:href="#DejaVuSans-50"/>
       <use x="127.246094" xlink:href="#DejaVuSans-95"/>
       <use x="177.246094" xlink:href="#DejaVuSans-49"/>
       <use x="240.869141" xlink:href="#DejaVuSans-48"/>
       <use x="304.492188" xlink:href="#DejaVuSans-95"/>
       <use x="354.492188" xlink:href="#DejaVuSans-49"/>
       <use x="418.115234" xlink:href="#DejaVuSans-48"/>
      </g>
     </g>
    </g>
    <g id="ytick_25">
     <g id="line2d_31">
      <g>
       <use style="stroke:#000000;stroke-width:0.8;" x="45" xlink:href="#m2e287e9ec1" y="983.305946"/>
      </g>
     </g>
     <g id="text_32">
      <!-- 23_10_10 -->
      <g transform="translate(-10.175 987.016883)scale(0.1 -0.1)">
       <use xlink:href="#DejaVuSans-50"/>
       <use x="63.623047" xlink:href="#DejaVuSans-51"/>
       <use x="127.246094" xlink:href="#DejaVuSans-95"/>
       <use x="177.246094" xlink:href="#DejaVuSans-49"/>
       <use x="240.869141" xlink:href="#DejaVuSans-48"/>
       <use x="304.492188" xlink:href="#DejaVuSans-95"/>
       <use x="354.492188" xlink:href="#DejaVuSans-49"/>
       <use x="418.115234" xlink:href="#DejaVuSans-48"/>
      </g>
     </g>
    </g>
    <g id="ytick_26">
     <g id="line2d_32">
      <g>
       <use style="stroke:#000000;stroke-width:0.8;" x="45" xlink:href="#m2e287e9ec1" y="958.008649"/>
      </g>
     </g>
     <g id="text_33">
      <!-- 22_11_10 -->
      <g transform="translate(-10.175 961.719586)scale(0.1 -0.1)">
       <use xlink:href="#DejaVuSans-50"/>
       <use x="63.623047" xlink:href="#DejaVuSans-50"/>
       <use x="127.246094" xlink:href="#DejaVuSans-95"/>
       <use x="177.246094" xlink:href="#DejaVuSans-49"/>
       <use x="240.869141" xlink:href="#DejaVuSans-49"/>
       <use x="304.492188" xlink:href="#DejaVuSans-95"/>
       <use x="354.492188" xlink:href="#DejaVuSans-49"/>
       <use x="418.115234" xlink:href="#DejaVuSans-48"/>
      </g>
     </g>
    </g>
    <g id="ytick_27">
     <g id="line2d_33">
      <g>
       <use style="stroke:#000000;stroke-width:0.8;" x="45" xlink:href="#m2e287e9ec1" y="932.711351"/>
      </g>
     </g>
     <g id="text_34">
      <!-- 23_11_10 -->
      <g transform="translate(-10.175 936.422289)scale(0.1 -0.1)">
       <use xlink:href="#DejaVuSans-50"/>
       <use x="63.623047" xlink:href="#DejaVuSans-51"/>
       <use x="127.246094" xlink:href="#DejaVuSans-95"/>
       <use x="177.246094" xlink:href="#DejaVuSans-49"/>
       <use x="240.869141" xlink:href="#DejaVuSans-49"/>
       <use x="304.492188" xlink:href="#DejaVuSans-95"/>
       <use x="354.492188" xlink:href="#DejaVuSans-49"/>
       <use x="418.115234" xlink:href="#DejaVuSans-48"/>
      </g>
     </g>
    </g>
    <g id="ytick_28">
     <g id="line2d_34">
      <g>
       <use style="stroke:#000000;stroke-width:0.8;" x="45" xlink:href="#m2e287e9ec1" y="907.414054"/>
      </g>
     </g>
     <g id="text_35">
      <!-- 22_12_10 -->
      <g transform="translate(-10.175 911.124992)scale(0.1 -0.1)">
       <use xlink:href="#DejaVuSans-50"/>
       <use x="63.623047" xlink:href="#DejaVuSans-50"/>
       <use x="127.246094" xlink:href="#DejaVuSans-95"/>
       <use x="177.246094" xlink:href="#DejaVuSans-49"/>
       <use x="240.869141" xlink:href="#DejaVuSans-50"/>
       <use x="304.492188" xlink:href="#DejaVuSans-95"/>
       <use x="354.492188" xlink:href="#DejaVuSans-49"/>
       <use x="418.115234" xlink:href="#DejaVuSans-48"/>
      </g>
     </g>
    </g>
    <g id="ytick_29">
     <g id="line2d_35">
      <g>
       <use style="stroke:#000000;stroke-width:0.8;" x="45" xlink:href="#m2e287e9ec1" y="882.116757"/>
      </g>
     </g>
     <g id="text_36">
      <!-- 23_12_10 -->
      <g transform="translate(-10.175 885.827694)scale(0.1 -0.1)">
       <use xlink:href="#DejaVuSans-50"/>
       <use x="63.623047" xlink:href="#DejaVuSans-51"/>
       <use x="127.246094" xlink:href="#DejaVuSans-95"/>
       <use x="177.246094" xlink:href="#DejaVuSans-49"/>
       <use x="240.869141" xlink:href="#DejaVuSans-50"/>
       <use x="304.492188" xlink:href="#DejaVuSans-95"/>
       <use x="354.492188" xlink:href="#DejaVuSans-49"/>
       <use x="418.115234" xlink:href="#DejaVuSans-48"/>
      </g>
     </g>
    </g>
    <g id="ytick_30">
     <g id="line2d_36">
      <g>
       <use style="stroke:#000000;stroke-width:0.8;" x="45" xlink:href="#m2e287e9ec1" y="856.819459"/>
      </g>
     </g>
     <g id="text_37">
      <!-- 24_12_10 -->
      <g transform="translate(-10.175 860.530397)scale(0.1 -0.1)">
       <use xlink:href="#DejaVuSans-50"/>
       <use x="63.623047" xlink:href="#DejaVuSans-52"/>
       <use x="127.246094" xlink:href="#DejaVuSans-95"/>
       <use x="177.246094" xlink:href="#DejaVuSans-49"/>
       <use x="240.869141" xlink:href="#DejaVuSans-50"/>
       <use x="304.492188" xlink:href="#DejaVuSans-95"/>
       <use x="354.492188" xlink:href="#DejaVuSans-49"/>
       <use x="418.115234" xlink:href="#DejaVuSans-48"/>
      </g>
     </g>
    </g>
    <g id="ytick_31">
     <g id="line2d_37">
      <g>
       <use style="stroke:#000000;stroke-width:0.8;" x="45" xlink:href="#m2e287e9ec1" y="831.522162"/>
      </g>
     </g>
     <g id="text_38">
      <!-- 23_13_10 -->
      <g transform="translate(-10.175 835.2331)scale(0.1 -0.1)">
       <use xlink:href="#DejaVuSans-50"/>
       <use x="63.623047" xlink:href="#DejaVuSans-51"/>
       <use x="127.246094" xlink:href="#DejaVuSans-95"/>
       <use x="177.246094" xlink:href="#DejaVuSans-49"/>
       <use x="240.869141" xlink:href="#DejaVuSans-51"/>
       <use x="304.492188" xlink:href="#DejaVuSans-95"/>
       <use x="354.492188" xlink:href="#DejaVuSans-49"/>
       <use x="418.115234" xlink:href="#DejaVuSans-48"/>
      </g>
     </g>
    </g>
    <g id="ytick_32">
     <g id="line2d_38">
      <g>
       <use style="stroke:#000000;stroke-width:0.8;" x="45" xlink:href="#m2e287e9ec1" y="806.224865"/>
      </g>
     </g>
     <g id="text_39">
      <!-- 24_13_10 -->
      <g transform="translate(-10.175 809.935802)scale(0.1 -0.1)">
       <use xlink:href="#DejaVuSans-50"/>
       <use x="63.623047" xlink:href="#DejaVuSans-52"/>
       <use x="127.246094" xlink:href="#DejaVuSans-95"/>
       <use x="177.246094" xlink:href="#DejaVuSans-49"/>
       <use x="240.869141" xlink:href="#DejaVuSans-51"/>
       <use x="304.492188" xlink:href="#DejaVuSans-95"/>
       <use x="354.492188" xlink:href="#DejaVuSans-49"/>
       <use x="418.115234" xlink:href="#DejaVuSans-48"/>
      </g>
     </g>
    </g>
    <g id="ytick_33">
     <g id="line2d_39">
      <g>
       <use style="stroke:#000000;stroke-width:0.8;" x="45" xlink:href="#m2e287e9ec1" y="780.927568"/>
      </g>
     </g>
     <g id="text_40">
      <!-- 23_8_11 -->
      <g transform="translate(-3.8125 784.638505)scale(0.1 -0.1)">
       <use xlink:href="#DejaVuSans-50"/>
       <use x="63.623047" xlink:href="#DejaVuSans-51"/>
       <use x="127.246094" xlink:href="#DejaVuSans-95"/>
       <use x="177.246094" xlink:href="#DejaVuSans-56"/>
       <use x="240.869141" xlink:href="#DejaVuSans-95"/>
       <use x="290.869141" xlink:href="#DejaVuSans-49"/>
       <use x="354.492188" xlink:href="#DejaVuSans-49"/>
      </g>
     </g>
    </g>
    <g id="ytick_34">
     <g id="line2d_40">
      <g>
       <use style="stroke:#000000;stroke-width:0.8;" x="45" xlink:href="#m2e287e9ec1" y="755.63027"/>
      </g>
     </g>
     <g id="text_41">
      <!-- 24_8_11 -->
      <g transform="translate(-3.8125 759.341208)scale(0.1 -0.1)">
       <use xlink:href="#DejaVuSans-50"/>
       <use x="63.623047" xlink:href="#DejaVuSans-52"/>
       <use x="127.246094" xlink:href="#DejaVuSans-95"/>
       <use x="177.246094" xlink:href="#DejaVuSans-56"/>
       <use x="240.869141" xlink:href="#DejaVuSans-95"/>
       <use x="290.869141" xlink:href="#DejaVuSans-49"/>
       <use x="354.492188" xlink:href="#DejaVuSans-49"/>
      </g>
     </g>
    </g>
    <g id="ytick_35">
     <g id="line2d_41">
      <g>
       <use style="stroke:#000000;stroke-width:0.8;" x="45" xlink:href="#m2e287e9ec1" y="730.332973"/>
      </g>
     </g>
     <g id="text_42">
      <!-- 21_9_11 -->
      <g transform="translate(-3.8125 734.04391)scale(0.1 -0.1)">
       <use xlink:href="#DejaVuSans-50"/>
       <use x="63.623047" xlink:href="#DejaVuSans-49"/>
       <use x="127.246094" xlink:href="#DejaVuSans-95"/>
       <use x="177.246094" xlink:href="#DejaVuSans-57"/>
       <use x="240.869141" xlink:href="#DejaVuSans-95"/>
       <use x="290.869141" xlink:href="#DejaVuSans-49"/>
       <use x="354.492188" xlink:href="#DejaVuSans-49"/>
      </g>
     </g>
    </g>
    <g id="ytick_36">
     <g id="line2d_42">
      <g>
       <use style="stroke:#000000;stroke-width:0.8;" x="45" xlink:href="#m2e287e9ec1" y="705.035676"/>
      </g>
     </g>
     <g id="text_43">
      <!-- 22_9_11 -->
      <g transform="translate(-3.8125 708.746613)scale(0.1 -0.1)">
       <use xlink:href="#DejaVuSans-50"/>
       <use x="63.623047" xlink:href="#DejaVuSans-50"/>
       <use x="127.246094" xlink:href="#DejaVuSans-95"/>
       <use x="177.246094" xlink:href="#DejaVuSans-57"/>
       <use x="240.869141" xlink:href="#DejaVuSans-95"/>
       <use x="290.869141" xlink:href="#DejaVuSans-49"/>
       <use x="354.492188" xlink:href="#DejaVuSans-49"/>
      </g>
     </g>
    </g>
    <g id="ytick_37">
     <g id="line2d_43">
      <g>
       <use style="stroke:#000000;stroke-width:0.8;" x="45" xlink:href="#m2e287e9ec1" y="679.738378"/>
      </g>
     </g>
     <g id="text_44">
      <!-- 23_9_11 -->
      <g transform="translate(-3.8125 683.449316)scale(0.1 -0.1)">
       <use xlink:href="#DejaVuSans-50"/>
       <use x="63.623047" xlink:href="#DejaVuSans-51"/>
       <use x="127.246094" xlink:href="#DejaVuSans-95"/>
       <use x="177.246094" xlink:href="#DejaVuSans-57"/>
       <use x="240.869141" xlink:href="#DejaVuSans-95"/>
       <use x="290.869141" xlink:href="#DejaVuSans-49"/>
       <use x="354.492188" xlink:href="#DejaVuSans-49"/>
      </g>
     </g>
    </g>
    <g id="ytick_38">
     <g id="line2d_44">
      <g>
       <use style="stroke:#000000;stroke-width:0.8;" x="45" xlink:href="#m2e287e9ec1" y="654.441081"/>
      </g>
     </g>
     <g id="text_45">
      <!-- 21_10_11 -->
      <g transform="translate(-10.175 658.152019)scale(0.1 -0.1)">
       <use xlink:href="#DejaVuSans-50"/>
       <use x="63.623047" xlink:href="#DejaVuSans-49"/>
       <use x="127.246094" xlink:href="#DejaVuSans-95"/>
       <use x="177.246094" xlink:href="#DejaVuSans-49"/>
       <use x="240.869141" xlink:href="#DejaVuSans-48"/>
       <use x="304.492188" xlink:href="#DejaVuSans-95"/>
       <use x="354.492188" xlink:href="#DejaVuSans-49"/>
       <use x="418.115234" xlink:href="#DejaVuSans-49"/>
      </g>
     </g>
    </g>
    <g id="ytick_39">
     <g id="line2d_45">
      <g>
       <use style="stroke:#000000;stroke-width:0.8;" x="45" xlink:href="#m2e287e9ec1" y="629.143784"/>
      </g>
     </g>
     <g id="text_46">
      <!-- 22_10_11 -->
      <g transform="translate(-10.175 632.854721)scale(0.1 -0.1)">
       <use xlink:href="#DejaVuSans-50"/>
       <use x="63.623047" xlink:href="#DejaVuSans-50"/>
       <use x="127.246094" xlink:href="#DejaVuSans-95"/>
       <use x="177.246094" xlink:href="#DejaVuSans-49"/>
       <use x="240.869141" xlink:href="#DejaVuSans-48"/>
       <use x="304.492188" xlink:href="#DejaVuSans-95"/>
       <use x="354.492188" xlink:href="#DejaVuSans-49"/>
       <use x="418.115234" xlink:href="#DejaVuSans-49"/>
      </g>
     </g>
    </g>
    <g id="ytick_40">
     <g id="line2d_46">
      <g>
       <use style="stroke:#000000;stroke-width:0.8;" x="45" xlink:href="#m2e287e9ec1" y="603.846486"/>
      </g>
     </g>
     <g id="text_47">
      <!-- 23_10_11 -->
      <g transform="translate(-10.175 607.557424)scale(0.1 -0.1)">
       <use xlink:href="#DejaVuSans-50"/>
       <use x="63.623047" xlink:href="#DejaVuSans-51"/>
       <use x="127.246094" xlink:href="#DejaVuSans-95"/>
       <use x="177.246094" xlink:href="#DejaVuSans-49"/>
       <use x="240.869141" xlink:href="#DejaVuSans-48"/>
       <use x="304.492188" xlink:href="#DejaVuSans-95"/>
       <use x="354.492188" xlink:href="#DejaVuSans-49"/>
       <use x="418.115234" xlink:href="#DejaVuSans-49"/>
      </g>
     </g>
    </g>
    <g id="ytick_41">
     <g id="line2d_47">
      <g>
       <use style="stroke:#000000;stroke-width:0.8;" x="45" xlink:href="#m2e287e9ec1" y="578.549189"/>
      </g>
     </g>
     <g id="text_48">
      <!-- 22_11_11 -->
      <g transform="translate(-10.175 582.260127)scale(0.1 -0.1)">
       <use xlink:href="#DejaVuSans-50"/>
       <use x="63.623047" xlink:href="#DejaVuSans-50"/>
       <use x="127.246094" xlink:href="#DejaVuSans-95"/>
       <use x="177.246094" xlink:href="#DejaVuSans-49"/>
       <use x="240.869141" xlink:href="#DejaVuSans-49"/>
       <use x="304.492188" xlink:href="#DejaVuSans-95"/>
       <use x="354.492188" xlink:href="#DejaVuSans-49"/>
       <use x="418.115234" xlink:href="#DejaVuSans-49"/>
      </g>
     </g>
    </g>
    <g id="ytick_42">
     <g id="line2d_48">
      <g>
       <use style="stroke:#000000;stroke-width:0.8;" x="45" xlink:href="#m2e287e9ec1" y="553.251892"/>
      </g>
     </g>
     <g id="text_49">
      <!-- 23_11_11 -->
      <g transform="translate(-10.175 556.962829)scale(0.1 -0.1)">
       <use xlink:href="#DejaVuSans-50"/>
       <use x="63.623047" xlink:href="#DejaVuSans-51"/>
       <use x="127.246094" xlink:href="#DejaVuSans-95"/>
       <use x="177.246094" xlink:href="#DejaVuSans-49"/>
       <use x="240.869141" xlink:href="#DejaVuSans-49"/>
       <use x="304.492188" xlink:href="#DejaVuSans-95"/>
       <use x="354.492188" xlink:href="#DejaVuSans-49"/>
       <use x="418.115234" xlink:href="#DejaVuSans-49"/>
      </g>
     </g>
    </g>
    <g id="ytick_43">
     <g id="line2d_49">
      <g>
       <use style="stroke:#000000;stroke-width:0.8;" x="45" xlink:href="#m2e287e9ec1" y="527.954595"/>
      </g>
     </g>
     <g id="text_50">
      <!-- 24_11_11 -->
      <g transform="translate(-10.175 531.665532)scale(0.1 -0.1)">
       <use xlink:href="#DejaVuSans-50"/>
       <use x="63.623047" xlink:href="#DejaVuSans-52"/>
       <use x="127.246094" xlink:href="#DejaVuSans-95"/>
       <use x="177.246094" xlink:href="#DejaVuSans-49"/>
       <use x="240.869141" xlink:href="#DejaVuSans-49"/>
       <use x="304.492188" xlink:href="#DejaVuSans-95"/>
       <use x="354.492188" xlink:href="#DejaVuSans-49"/>
       <use x="418.115234" xlink:href="#DejaVuSans-49"/>
      </g>
     </g>
    </g>
    <g id="ytick_44">
     <g id="line2d_50">
      <g>
       <use style="stroke:#000000;stroke-width:0.8;" x="45" xlink:href="#m2e287e9ec1" y="502.657297"/>
      </g>
     </g>
     <g id="text_51">
      <!-- 23_12_11 -->
      <g transform="translate(-10.175 506.368235)scale(0.1 -0.1)">
       <use xlink:href="#DejaVuSans-50"/>
       <use x="63.623047" xlink:href="#DejaVuSans-51"/>
       <use x="127.246094" xlink:href="#DejaVuSans-95"/>
       <use x="177.246094" xlink:href="#DejaVuSans-49"/>
       <use x="240.869141" xlink:href="#DejaVuSans-50"/>
       <use x="304.492188" xlink:href="#DejaVuSans-95"/>
       <use x="354.492188" xlink:href="#DejaVuSans-49"/>
       <use x="418.115234" xlink:href="#DejaVuSans-49"/>
      </g>
     </g>
    </g>
    <g id="ytick_45">
     <g id="line2d_51">
      <g>
       <use style="stroke:#000000;stroke-width:0.8;" x="45" xlink:href="#m2e287e9ec1" y="477.36"/>
      </g>
     </g>
     <g id="text_52">
      <!-- 23_13_11 -->
      <g transform="translate(-10.175 481.070938)scale(0.1 -0.1)">
       <use xlink:href="#DejaVuSans-50"/>
       <use x="63.623047" xlink:href="#DejaVuSans-51"/>
       <use x="127.246094" xlink:href="#DejaVuSans-95"/>
       <use x="177.246094" xlink:href="#DejaVuSans-49"/>
       <use x="240.869141" xlink:href="#DejaVuSans-51"/>
       <use x="304.492188" xlink:href="#DejaVuSans-95"/>
       <use x="354.492188" xlink:href="#DejaVuSans-49"/>
       <use x="418.115234" xlink:href="#DejaVuSans-49"/>
      </g>
     </g>
    </g>
    <g id="ytick_46">
     <g id="line2d_52">
      <g>
       <use style="stroke:#000000;stroke-width:0.8;" x="45" xlink:href="#m2e287e9ec1" y="452.062703"/>
      </g>
     </g>
     <g id="text_53">
      <!-- 23_9_12 -->
      <g transform="translate(-3.8125 455.77364)scale(0.1 -0.1)">
       <use xlink:href="#DejaVuSans-50"/>
       <use x="63.623047" xlink:href="#DejaVuSans-51"/>
       <use x="127.246094" xlink:href="#DejaVuSans-95"/>
       <use x="177.246094" xlink:href="#DejaVuSans-57"/>
       <use x="240.869141" xlink:href="#DejaVuSans-95"/>
       <use x="290.869141" xlink:href="#DejaVuSans-49"/>
       <use x="354.492188" xlink:href="#DejaVuSans-50"/>
      </g>
     </g>
    </g>
    <g id="ytick_47">
     <g id="line2d_53">
      <g>
       <use style="stroke:#000000;stroke-width:0.8;" x="45" xlink:href="#m2e287e9ec1" y="426.765405"/>
      </g>
     </g>
     <g id="text_54">
      <!-- 23_10_12 -->
      <g transform="translate(-10.175 430.476343)scale(0.1 -0.1)">
       <use xlink:href="#DejaVuSans-50"/>
       <use x="63.623047" xlink:href="#DejaVuSans-51"/>
       <use x="127.246094" xlink:href="#DejaVuSans-95"/>
       <use x="177.246094" xlink:href="#DejaVuSans-49"/>
       <use x="240.869141" xlink:href="#DejaVuSans-48"/>
       <use x="304.492188" xlink:href="#DejaVuSans-95"/>
       <use x="354.492188" xlink:href="#DejaVuSans-49"/>
       <use x="418.115234" xlink:href="#DejaVuSans-50"/>
      </g>
     </g>
    </g>
    <g id="ytick_48">
     <g id="line2d_54">
      <g>
       <use style="stroke:#000000;stroke-width:0.8;" x="45" xlink:href="#m2e287e9ec1" y="401.468108"/>
      </g>
     </g>
     <g id="text_55">
      <!-- 24_10_12 -->
      <g transform="translate(-10.175 405.179046)scale(0.1 -0.1)">
       <use xlink:href="#DejaVuSans-50"/>
       <use x="63.623047" xlink:href="#DejaVuSans-52"/>
       <use x="127.246094" xlink:href="#DejaVuSans-95"/>
       <use x="177.246094" xlink:href="#DejaVuSans-49"/>
       <use x="240.869141" xlink:href="#DejaVuSans-48"/>
       <use x="304.492188" xlink:href="#DejaVuSans-95"/>
       <use x="354.492188" xlink:href="#DejaVuSans-49"/>
       <use x="418.115234" xlink:href="#DejaVuSans-50"/>
      </g>
     </g>
    </g>
    <g id="ytick_49">
     <g id="line2d_55">
      <g>
       <use style="stroke:#000000;stroke-width:0.8;" x="45" xlink:href="#m2e287e9ec1" y="376.170811"/>
      </g>
     </g>
     <g id="text_56">
      <!-- 22_11_12 -->
      <g transform="translate(-10.175 379.881748)scale(0.1 -0.1)">
       <use xlink:href="#DejaVuSans-50"/>
       <use x="63.623047" xlink:href="#DejaVuSans-50"/>
       <use x="127.246094" xlink:href="#DejaVuSans-95"/>
       <use x="177.246094" xlink:href="#DejaVuSans-49"/>
       <use x="240.869141" xlink:href="#DejaVuSans-49"/>
       <use x="304.492188" xlink:href="#DejaVuSans-95"/>
       <use x="354.492188" xlink:href="#DejaVuSans-49"/>
       <use x="418.115234" xlink:href="#DejaVuSans-50"/>
      </g>
     </g>
    </g>
    <g id="ytick_50">
     <g id="line2d_56">
      <g>
       <use style="stroke:#000000;stroke-width:0.8;" x="45" xlink:href="#m2e287e9ec1" y="350.873514"/>
      </g>
     </g>
     <g id="text_57">
      <!-- 23_11_12 -->
      <g transform="translate(-10.175 354.584451)scale(0.1 -0.1)">
       <use xlink:href="#DejaVuSans-50"/>
       <use x="63.623047" xlink:href="#DejaVuSans-51"/>
       <use x="127.246094" xlink:href="#DejaVuSans-95"/>
       <use x="177.246094" xlink:href="#DejaVuSans-49"/>
       <use x="240.869141" xlink:href="#DejaVuSans-49"/>
       <use x="304.492188" xlink:href="#DejaVuSans-95"/>
       <use x="354.492188" xlink:href="#DejaVuSans-49"/>
       <use x="418.115234" xlink:href="#DejaVuSans-50"/>
      </g>
     </g>
    </g>
    <g id="ytick_51">
     <g id="line2d_57">
      <g>
       <use style="stroke:#000000;stroke-width:0.8;" x="45" xlink:href="#m2e287e9ec1" y="325.576216"/>
      </g>
     </g>
     <g id="text_58">
      <!-- 24_11_12 -->
      <g transform="translate(-10.175 329.287154)scale(0.1 -0.1)">
       <use xlink:href="#DejaVuSans-50"/>
       <use x="63.623047" xlink:href="#DejaVuSans-52"/>
       <use x="127.246094" xlink:href="#DejaVuSans-95"/>
       <use x="177.246094" xlink:href="#DejaVuSans-49"/>
       <use x="240.869141" xlink:href="#DejaVuSans-49"/>
       <use x="304.492188" xlink:href="#DejaVuSans-95"/>
       <use x="354.492188" xlink:href="#DejaVuSans-49"/>
       <use x="418.115234" xlink:href="#DejaVuSans-50"/>
      </g>
     </g>
    </g>
    <g id="ytick_52">
     <g id="line2d_58">
      <g>
       <use style="stroke:#000000;stroke-width:0.8;" x="45" xlink:href="#m2e287e9ec1" y="300.278919"/>
      </g>
     </g>
     <g id="text_59">
      <!-- 23_12_12 -->
      <g transform="translate(-10.175 303.989856)scale(0.1 -0.1)">
       <use xlink:href="#DejaVuSans-50"/>
       <use x="63.623047" xlink:href="#DejaVuSans-51"/>
       <use x="127.246094" xlink:href="#DejaVuSans-95"/>
       <use x="177.246094" xlink:href="#DejaVuSans-49"/>
       <use x="240.869141" xlink:href="#DejaVuSans-50"/>
       <use x="304.492188" xlink:href="#DejaVuSans-95"/>
       <use x="354.492188" xlink:href="#DejaVuSans-49"/>
       <use x="418.115234" xlink:href="#DejaVuSans-50"/>
      </g>
     </g>
    </g>
    <g id="text_60">
     <!-- Voxel name -->
     <defs>
      <path d="M 28.609375 0 
L 0.78125 72.90625 
L 11.078125 72.90625 
L 34.1875 11.53125 
L 57.328125 72.90625 
L 67.578125 72.90625 
L 39.796875 0 
z
" id="DejaVuSans-86"/>
      <path d="M 52 44.1875 
Q 55.375 50.25 60.0625 53.125 
Q 64.75 56 71.09375 56 
Q 79.640625 56 84.28125 50.015625 
Q 88.921875 44.046875 88.921875 33.015625 
L 88.921875 0 
L 79.890625 0 
L 79.890625 32.71875 
Q 79.890625 40.578125 77.09375 44.375 
Q 74.3125 48.1875 68.609375 48.1875 
Q 61.625 48.1875 57.5625 43.546875 
Q 53.515625 38.921875 53.515625 30.90625 
L 53.515625 0 
L 44.484375 0 
L 44.484375 32.71875 
Q 44.484375 40.625 41.703125 44.40625 
Q 38.921875 48.1875 33.109375 48.1875 
Q 26.21875 48.1875 22.15625 43.53125 
Q 18.109375 38.875 18.109375 30.90625 
L 18.109375 0 
L 9.078125 0 
L 9.078125 54.6875 
L 18.109375 54.6875 
L 18.109375 46.1875 
Q 21.1875 51.21875 25.484375 53.609375 
Q 29.78125 56 35.6875 56 
Q 41.65625 56 45.828125 52.96875 
Q 50 49.953125 52 44.1875 
z
" id="DejaVuSans-109"/>
     </defs>
     <g transform="translate(-16.254688 975.023281)rotate(-90)scale(0.1 -0.1)">
      <use xlink:href="#DejaVuSans-86"/>
      <use x="68.298828" xlink:href="#DejaVuSans-111"/>
      <use x="129.433594" xlink:href="#DejaVuSans-120"/>
      <use x="188.566406" xlink:href="#DejaVuSans-101"/>
      <use x="250.089844" xlink:href="#DejaVuSans-108"/>
      <use x="277.873047" xlink:href="#DejaVuSans-32"/>
      <use x="309.660156" xlink:href="#DejaVuSans-110"/>
      <use x="373.039062" xlink:href="#DejaVuSans-97"/>
      <use x="434.318359" xlink:href="#DejaVuSans-109"/>
      <use x="531.730469" xlink:href="#DejaVuSans-101"/>
     </g>
    </g>
   </g>
   <g id="patch_55">
    <path d="M 45 1666.08 
L 45 224.64 
" style="fill:none;stroke:#000000;stroke-linecap:square;stroke-linejoin:miter;stroke-width:0.8;"/>
   </g>
   <g id="patch_56">
    <path d="M 324 1666.08 
L 324 224.64 
" style="fill:none;stroke:#000000;stroke-linecap:square;stroke-linejoin:miter;stroke-width:0.8;"/>
   </g>
   <g id="patch_57">
    <path d="M 45 1666.08 
L 324 1666.08 
" style="fill:none;stroke:#000000;stroke-linecap:square;stroke-linejoin:miter;stroke-width:0.8;"/>
   </g>
   <g id="patch_58">
    <path d="M 45 224.64 
L 324 224.64 
" style="fill:none;stroke:#000000;stroke-linecap:square;stroke-linejoin:miter;stroke-width:0.8;"/>
   </g>
   <g id="text_61">
    <!-- Voxels used for Position 6 -->
    <defs>
     <path d="M 45.40625 46.390625 
L 45.40625 75.984375 
L 54.390625 75.984375 
L 54.390625 0 
L 45.40625 0 
L 45.40625 8.203125 
Q 42.578125 3.328125 38.25 0.953125 
Q 33.9375 -1.421875 27.875 -1.421875 
Q 17.96875 -1.421875 11.734375 6.484375 
Q 5.515625 14.40625 5.515625 27.296875 
Q 5.515625 40.1875 11.734375 48.09375 
Q 17.96875 56 27.875 56 
Q 33.9375 56 38.25 53.625 
Q 42.578125 51.265625 45.40625 46.390625 
z
M 14.796875 27.296875 
Q 14.796875 17.390625 18.875 11.75 
Q 22.953125 6.109375 30.078125 6.109375 
Q 37.203125 6.109375 41.296875 11.75 
Q 45.40625 17.390625 45.40625 27.296875 
Q 45.40625 37.203125 41.296875 42.84375 
Q 37.203125 48.484375 30.078125 48.484375 
Q 22.953125 48.484375 18.875 42.84375 
Q 14.796875 37.203125 14.796875 27.296875 
z
" id="DejaVuSans-100"/>
    </defs>
    <g transform="translate(107.005313 218.64)scale(0.12 -0.12)">
     <use xlink:href="#DejaVuSans-86"/>
     <use x="68.298828" xlink:href="#DejaVuSans-111"/>
     <use x="129.433594" xlink:href="#DejaVuSans-120"/>
     <use x="188.566406" xlink:href="#DejaVuSans-101"/>
     <use x="250.089844" xlink:href="#DejaVuSans-108"/>
     <use x="277.873047" xlink:href="#DejaVuSans-115"/>
     <use x="329.972656" xlink:href="#DejaVuSans-32"/>
     <use x="361.759766" xlink:href="#DejaVuSans-117"/>
     <use x="425.138672" xlink:href="#DejaVuSans-115"/>
     <use x="477.238281" xlink:href="#DejaVuSans-101"/>
     <use x="538.761719" xlink:href="#DejaVuSans-100"/>
     <use x="602.238281" xlink:href="#DejaVuSans-32"/>
     <use x="634.025391" xlink:href="#DejaVuSans-102"/>
     <use x="669.230469" xlink:href="#DejaVuSans-111"/>
     <use x="730.412109" xlink:href="#DejaVuSans-114"/>
     <use x="771.525391" xlink:href="#DejaVuSans-32"/>
     <use x="803.3125" xlink:href="#DejaVuSans-80"/>
     <use x="863.568359" xlink:href="#DejaVuSans-111"/>
     <use x="924.75" xlink:href="#DejaVuSans-115"/>
     <use x="976.849609" xlink:href="#DejaVuSans-105"/>
     <use x="1004.632812" xlink:href="#DejaVuSans-116"/>
     <use x="1043.841797" xlink:href="#DejaVuSans-105"/>
     <use x="1071.625" xlink:href="#DejaVuSans-111"/>
     <use x="1132.806641" xlink:href="#DejaVuSans-110"/>
     <use x="1196.185547" xlink:href="#DejaVuSans-32"/>
     <use x="1227.972656" xlink:href="#DejaVuSans-54"/>
    </g>
   </g>
  </g>
 </g>
 <defs>
  <clipPath id="p8914077bb1">
   <rect height="1441.44" width="279" x="45" y="224.64"/>
  </clipPath>
 </defs>
</svg>
